<svg xmlns="http://www.w3.org/2000/svg" xmlns:xlink="http://www.w3.org/1999/xlink" xmlns:lucid="lucid" width="1404" height="835.56"><g transform="translate(661 1052.564238928836)" lucid:page-tab-id="0_0"><path d="M-492-679.78c29.82 0 54 24.18 54 54s-24.18 54-54 54h-94c-29.82 0-54-24.18-54-54s24.18-54 54-54z" stroke="#3a414a" stroke-width="2" fill="#fff"/><use xlink:href="#a" transform="matrix(1,0,0,1,-628,-667.7784042751341) translate(62.48765432098766 46.65277777777778)"/><path d="M-224.8-702.03a7.5 7.5 0 0 1 9.36 0l90.63 72.5a4.8 4.8 0 0 1 0 7.5l-90.64 72.5a7.5 7.5 0 0 1-9.37 0l-90.64-72.5a4.8 4.8 0 0 1 0-7.5z" stroke="#3a414a" stroke-width="2" fill="#fff"/><use xlink:href="#b" transform="matrix(1,0,0,1,-315.12924606462275,-700.7784042751341) translate(41.363024691358035 64.65277777777777)"/><use xlink:href="#c" transform="matrix(1,0,0,1,-315.12924606462275,-700.7784042751341) translate(94.38771604938272 64.65277777777777)"/><use xlink:href="#d" transform="matrix(1,0,0,1,-315.12924606462275,-700.7784042751341) translate(105.4370987654321 64.65277777777777)"/><use xlink:href="#e" transform="matrix(1,0,0,1,-315.12924606462275,-700.7784042751341) translate(136.3012962962963 64.65277777777777)"/><use xlink:href="#f" transform="matrix(1,0,0,1,-315.12924606462275,-700.7784042751341) translate(60.46796296296296 91.31944444444446)"/><use xlink:href="#g" transform="matrix(1,0,0,1,-315.12924606462275,-700.7784042751341) translate(97.505 91.31944444444446)"/><path d="M-60-700.78a6 6 0 0 1 6-6h190a6 6 0 0 1 6 6v150a6 6 0 0 1-6 6H-54a6 6 0 0 1-6-6z" stroke="#3a414a" stroke-width="2" fill="#fff"/><use xlink:href="#h" transform="matrix(1,0,0,1,-48,-694.7784042751341) translate(0.2962962962963047 73.84027777777777)"/><use xlink:href="#i" transform="matrix(1,0,0,1,-48,-694.7784042751341) translate(70.54320987654322 73.84027777777777)"/><use xlink:href="#j" transform="matrix(1,0,0,1,-48,-694.7784042751341) translate(112.39506172839506 73.84027777777777)"/><use xlink:href="#k" transform="matrix(1,0,0,1,-48,-694.7784042751341) translate(172.82716049382717 73.84027777777777)"/><path d="M307.75-702.03a7.5 7.5 0 0 1 9.37 0l90.63 72.5a4.8 4.8 0 0 1 0 7.5l-90.63 72.5a7.5 7.5 0 0 1-9.37 0l-90.63-72.5a4.8 4.8 0 0 1 0-7.5z" stroke="#3a414a" stroke-width="2" fill="#fff"/><use xlink:href="#b" transform="matrix(1,0,0,1,217.43537696768863,-700.7784042751341) translate(32.443271604938275 64.65277777777777)"/><use xlink:href="#l" transform="matrix(1,0,0,1,217.43537696768863,-700.7784042751341) translate(85.46796296296296 64.65277777777777)"/><use xlink:href="#d" transform="matrix(1,0,0,1,217.43537696768863,-700.7784042751341) translate(96.51734567901234 64.65277777777777)"/><use xlink:href="#m" transform="matrix(1,0,0,1,217.43537696768863,-700.7784042751341) translate(127.38154320987654 64.65277777777777)"/><use xlink:href="#f" transform="matrix(1,0,0,1,217.43537696768863,-700.7784042751341) translate(70.31364197530864 91.31944444444446)"/><use xlink:href="#n" transform="matrix(1,0,0,1,217.43537696768863,-700.7784042751341) translate(107.35067901234568 91.31944444444446)"/><path d="M307.75-996.25a7.5 7.5 0 0 1 9.37 0l90.63 72.5a4.8 4.8 0 0 1 0 7.5l-90.63 72.5a7.5 7.5 0 0 1-9.37 0l-90.63-72.5a4.8 4.8 0 0 1 0-7.5z" stroke="#3a414a" stroke-width="2" fill="#fff"/><use xlink:href="#o" transform="matrix(1,0,0,1,217.43537696768863,-995) translate(36.76425925925926 64.65277777777777)"/><use xlink:href="#p" transform="matrix(1,0,0,1,217.43537696768863,-995) translate(66.39388888888888 64.65277777777777)"/><use xlink:href="#q" transform="matrix(1,0,0,1,217.43537696768863,-995) translate(140.28277777777777 64.65277777777777)"/><use xlink:href="#r" transform="matrix(1,0,0,1,217.43537696768863,-995) translate(45.74574074074074 91.31944444444446)"/><path d="M520-700.78a6 6 0 0 1 6-6h190a6 6 0 0 1 6 6v150a6 6 0 0 1-6 6H526a6 6 0 0 1-6-6z" stroke="#3a414a" stroke-width="2" fill="#fff"/><use xlink:href="#s" transform="matrix(1,0,0,1,532,-694.7784042751341) translate(56.067901234567906 60.90277777777778)"/><use xlink:href="#t" transform="matrix(1,0,0,1,532,-694.7784042751341) translate(97.91975308641975 60.90277777777778)"/><use xlink:href="#u" transform="matrix(1,0,0,1,532,-694.7784042751341) translate(117.05555555555554 60.90277777777778)"/><use xlink:href="#v" transform="matrix(1,0,0,1,532,-694.7784042751341) translate(55.45061728395061 87.56944444444446)"/><use xlink:href="#t" transform="matrix(1,0,0,1,532,-694.7784042751341) translate(66.5 87.56944444444446)"/><use xlink:href="#l" transform="matrix(1,0,0,1,532,-694.7784042751341) translate(85.6358024691358 87.56944444444446)"/><use xlink:href="#w" transform="matrix(1,0,0,1,532,-694.7784042751341) translate(96.68518518518519 87.56944444444446)"/><use xlink:href="#x" transform="matrix(1,0,0,1,532,-694.7784042751341) translate(110.2037037037037 87.56944444444446)"/><path d="M451.53-631.74l-.08 1.05-.26 1.08-.43 1-.57.94-.7.84-.84.7-.94.58-1 .42-1.07.25-1.06.1h-15.54v-1.95h15.46l.82-.07.77-.18.74-.3.67-.42.6-.5.52-.6.4-.68.3-.73.2-.76.06-.82v-130.4h1.95zm-5.88-289.15l1.06.26 1.02.42.94.58.83.7.7.84.57.93.42 1 .25 1.08.08 1.06v130.48h-1.95v-130.4l-.06-.83-.2-.75-.3-.73-.4-.67-.5-.6-.6-.5-.68-.43-.73-.3-.76-.18-.82-.06h-32.96V-921h33.03z" stroke="#5e5e5e" stroke-width=".05" fill="#5e5e5e"/><path d="M411.58-919.02h-1.1l.08-.98-.1-.98h1.12z" fill="#5e5e5e"/><path stroke="#5e5e5e" stroke-width=".05" fill="#5e5e5e"/><path d="M428.06-621.14l-14.27-4.64 14.26-4.63z" fill="#5e5e5e"/><path d="M429.03-619.8l-18.4-5.98 18.4-5.98zm-12.08-5.98l10.13 3.3v-6.6z" stroke="#5e5e5e" stroke-width=".05" fill="#5e5e5e"/><use xlink:href="#y" transform="matrix(1,0,0,1,433.8148756157132,-783.5558688042337) translate(0 14.222222222222223)"/><path d="M-173.13-900c29.82 0 54 24.18 54 54s-24.18 54-54 54h-94c-29.82 0-54-24.18-54-54s24.18-54 54-54z" stroke="#3a414a" stroke-width="2" fill="#fff"/><use xlink:href="#z" transform="matrix(1,0,0,1,-309.12924606462275,-888) translate(70.57407407407408 46.65277777777778)"/><path d="M-436-625.78h99.25" stroke="#5e5e5e" stroke-width="2" fill="none"/><path d="M-435.97-624.8h-1.07l.04-.98-.04-.97h1.07z" stroke="#5e5e5e" stroke-width=".05" fill="#5e5e5e"/><path d="M-321.5-625.78l-14.25 4.64v-9.27z" stroke="#5e5e5e" stroke-width="2" fill="#5e5e5e"/><path d="M-121-625.78h41.5" stroke="#5e5e5e" stroke-width="2" fill="none"/><path d="M-120.98-624.8h-1.12l.1-.98-.1-.97h1.12z" stroke="#5e5e5e" stroke-width=".05" fill="#5e5e5e"/><path d="M-64.24-625.78l-14.26 4.64v-9.27z" stroke="#5e5e5e" stroke-width="2" fill="#5e5e5e"/><path d="M144-625.78h51.8" stroke="#5e5e5e" stroke-width="2" fill="none"/><path d="M144.03-624.8H143v-1.95h1.03z" stroke="#5e5e5e" stroke-width=".05" fill="#5e5e5e"/><path d="M211.08-625.78l-14.27 4.64v-9.27z" stroke="#5e5e5e" stroke-width="2" fill="#5e5e5e"/><path d="M312.44-705.68V-822.6" stroke="#5e5e5e" stroke-width="2" fill="none"/><path d="M313.4-704.6l-.96-.08-.98.07v-1.1h1.95z" stroke="#5e5e5e" stroke-width=".05" fill="#5e5e5e"/><path d="M312.44-837.87l4.63 14.27h-9.27z" stroke="#5e5e5e" stroke-width="2" fill="#5e5e5e"/><path d="M621.98-726.28H620v-301.95H622zm-26-311.64h-277.5l-.83.06-.77.2-.73.3-.67.4-.6.5-.5.6-.42.68-.3.73-.2.77-.05.82v32.96h-1.94v-33.04l.08-1.05.26-1.05.42-1.02.57-.93.7-.83.83-.7.94-.6 1-.4 1.07-.26 1.06-.07h277.58z" stroke="#5e5e5e" stroke-width=".05" fill="#5e5e5e"/><path d="M313.4-998.83l-.96-.07-.98.07v-1.1h1.95z" fill="#5e5e5e"/><path stroke="#5e5e5e" stroke-width=".05" fill="#5e5e5e"/><path d="M621-711l-4.63-14.28h9.26z" fill="#5e5e5e"/><path d="M621-707.86l-5.98-18.4h11.96zm-3.3-16.44l3.3 10.13 3.3-10.13z" stroke="#5e5e5e" stroke-width=".05" fill="#5e5e5e"/><g><use xlink:href="#A" transform="matrix(1,0,0,1,595.9810011810655,-1049.564238928836) translate(0 14.222222222222223)"/></g><path d="M312.44-545.88v126.38" stroke="#5e5e5e" stroke-width="2" fill="none"/><path d="M312.44-546.88l.97-.07v1.1h-1.94v-1.1z" stroke="#5e5e5e" stroke-width=".05" fill="#5e5e5e"/><path d="M312.44-404.24l-4.64-14.26h9.27z" stroke="#5e5e5e" stroke-width="2" fill="#5e5e5e"/><path d="M209.44-319h-423.57a6 6 0 0 1-6-6v-203.38" stroke="#5e5e5e" stroke-width="2" fill="none"/><path d="M210.44-318.02h-1.03v-1.96h1.03z" stroke="#5e5e5e" stroke-width=".05" fill="#5e5e5e"/><path d="M-220.13-543.64l4.64 14.26h-9.26z" stroke="#5e5e5e" stroke-width="2" fill="#5e5e5e"/><path d="M211.44-394a6 6 0 0 1 6-6h190a6 6 0 0 1 6 6v150a6 6 0 0 1-6 6h-190a6 6 0 0 1-6-6z" stroke="#3a414a" stroke-width="2" fill="#fff"/><g><use xlink:href="#B" transform="matrix(1,0,0,1,223.43537696768863,-388) translate(0.08024691358025393 60.90277777777778)"/><use xlink:href="#C" transform="matrix(1,0,0,1,223.43537696768863,-388) translate(62.11728395061729 60.90277777777778)"/><use xlink:href="#D" transform="matrix(1,0,0,1,223.43537696768863,-388) translate(136.00617283950618 60.90277777777778)"/><use xlink:href="#r" transform="matrix(1,0,0,1,223.43537696768863,-388) translate(39.74074074074074 87.56944444444446)"/></g><path d="M-220.13-705.68v-66.82" stroke="#5e5e5e" stroke-width="2" fill="none"/><path d="M-219.15-704.6l-.98-.08-.97.07v-1.1h1.95z" stroke="#5e5e5e" stroke-width=".05" fill="#5e5e5e"/><path d="M-220.13-787.76l4.64 14.26h-9.26z" stroke="#5e5e5e" stroke-width="2" fill="#5e5e5e"/><path d="M518-625.78h-88.94" stroke="#5e5e5e" stroke-width="2" fill="none"/><path d="M519-624.8h-1.03v-1.95H519z" stroke="#5e5e5e" stroke-width=".05" fill="#5e5e5e"/><path d="M413.8-625.78l14.26-4.63v9.26z" stroke="#5e5e5e" stroke-width="2" fill="#5e5e5e"/><defs><path d="M33 0v-248h34V0H33" id="E"/><path d="M117-194c89-4 53 116 60 194h-32v-121c0-31-8-49-39-48C34-167 62-67 57 0H25l-1-190h30c1 10-1 24 2 32 11-22 29-35 61-36" id="F"/><path d="M34 0v-190h32V0H34zM24-211c8-23 27-35 38-54h36v5l-58 49H24" id="G"/><path d="M96-169c-40 0-48 33-48 73s9 75 48 75c24 0 41-14 43-38l32 2c-6 37-31 61-74 61-59 0-76-41-82-99-10-93 101-131 147-64 4 7 5 14 7 22l-32 3c-4-21-16-35-41-35" id="H"/><path d="M24-231v-30h32v30H24zM24 0v-190h32V0H24" id="I"/><path d="M100-194c62-1 85 37 85 99 1 63-27 99-86 99S16-35 15-95c0-66 28-99 85-99zM99-20c44 1 53-31 53-75 0-43-8-75-51-75s-53 32-53 75 10 74 51 75" id="J"/><g id="a"><use transform="matrix(0.06172839506172839,0,0,0.06172839506172839,0,0)" xlink:href="#E"/><use transform="matrix(0.06172839506172839,0,0,0.06172839506172839,6.172839506172839,0)" xlink:href="#F"/><use transform="matrix(0.06172839506172839,0,0,0.06172839506172839,18.51851851851852,0)" xlink:href="#G"/><use transform="matrix(0.06172839506172839,0,0,0.06172839506172839,24.691358024691358,0)" xlink:href="#H"/><use transform="matrix(0.06172839506172839,0,0,0.06172839506172839,35.80246913580247,0)" xlink:href="#I"/><use transform="matrix(0.06172839506172839,0,0,0.06172839506172839,40.67901234567901,0)" xlink:href="#J"/></g><path d="M30-248c87 1 191-15 191 75 0 78-77 80-158 76V0H30v-248zm33 125c57 0 124 11 124-50 0-59-68-47-124-48v98" id="K"/><path d="M141-36C126-15 110 5 73 4 37 3 15-17 15-53c-1-64 63-63 125-63 3-35-9-54-41-54-24 1-41 7-42 31l-33-3c5-37 33-52 76-52 45 0 72 20 72 64v82c-1 20 7 32 28 27v20c-31 9-61-2-59-35zM48-53c0 20 12 33 32 33 41-3 63-29 60-74-43 2-92-5-92 41" id="L"/><path d="M114-163C36-179 61-72 57 0H25l-1-190h30c1 12-1 29 2 39 6-27 23-49 58-41v29" id="M"/><g id="b"><use transform="matrix(0.06172839506172839,0,0,0.06172839506172839,0,0)" xlink:href="#K"/><use transform="matrix(0.06172839506172839,0,0,0.06172839506172839,14.814814814814813,0)" xlink:href="#L"/><use transform="matrix(0.06172839506172839,0,0,0.06172839506172839,27.160493827160494,0)" xlink:href="#M"/><use transform="matrix(0.06172839506172839,0,0,0.06172839506172839,34.50617283950617,0)" xlink:href="#L"/></g><use transform="matrix(0.06172839506172839,0,0,0.06172839506172839,0,0)" xlink:href="#I" id="c"/><path d="M85-194c31 0 48 13 60 33l-1-100h32l1 261h-30c-2-10 0-23-3-31C134-8 116 4 85 4 32 4 16-35 15-94c0-66 23-100 70-100zm9 24c-40 0-46 34-46 75 0 40 6 74 45 74 42 0 51-32 51-76 0-42-9-74-50-73" id="N"/><path d="M100-194c63 0 86 42 84 106H49c0 40 14 67 53 68 26 1 43-12 49-29l28 8c-11 28-37 45-77 45C44 4 14-33 15-96c1-61 26-98 85-98zm52 81c6-60-76-77-97-28-3 7-6 17-6 28h103" id="O"/><g id="d"><use transform="matrix(0.06172839506172839,0,0,0.06172839506172839,0,0)" xlink:href="#N"/><use transform="matrix(0.06172839506172839,0,0,0.06172839506172839,12.345679012345679,0)" xlink:href="#O"/></g><path d="M101-251c68 0 85 55 85 127S166 4 100 4C33 4 14-52 14-124c0-73 17-127 87-127zm-1 229c47 0 54-49 54-102s-4-102-53-102c-51 0-55 48-55 102 0 53 5 102 54 102" id="P"/><use transform="matrix(0.06172839506172839,0,0,0.06172839506172839,0,0)" xlink:href="#P" id="e"/><path d="M59-47c-2 24 18 29 38 22v24C64 9 27 4 27-40v-127H5v-23h24l9-43h21v43h35v23H59v120" id="Q"/><path d="M100-194c63 0 86 42 84 106H49c0 40 14 67 53 68 26 1 43-12 49-29l28 8c-11 28-37 45-77 45C44 4 14-33 15-96c1-61 26-98 85-98zm52 81c6-60-76-77-97-28-3 7-6 17-6 28h103zm-74-98c8-23 27-35 38-54h36v5l-58 49H78" id="R"/><g id="f"><use transform="matrix(0.06172839506172839,0,0,0.06172839506172839,0,0)" xlink:href="#L"/><use transform="matrix(0.06172839506172839,0,0,0.06172839506172839,12.345679012345679,0)" xlink:href="#Q"/><use transform="matrix(0.06172839506172839,0,0,0.06172839506172839,18.51851851851852,0)" xlink:href="#R"/></g><path d="M16-82v-28h88v28H16" id="S"/><path d="M27 0v-27h64v-190l-56 39v-29l58-41h29v221h61V0H27" id="T"/><g id="g"><use transform="matrix(0.06172839506172839,0,0,0.06172839506172839,0,0)" xlink:href="#F"/><use transform="matrix(0.06172839506172839,0,0,0.06172839506172839,12.345679012345679,0)" xlink:href="#S"/><use transform="matrix(0.06172839506172839,0,0,0.06172839506172839,19.691358024691358,0)" xlink:href="#T"/></g><path d="M30-248c118-7 216 8 213 122C240-48 200 0 122 0H30v-248zM63-27c89 8 146-16 146-99s-60-101-146-95v194" id="U"/><path d="M101-234c-31-9-42 10-38 44h38v23H63V0H32v-167H5v-23h27c-7-52 17-82 69-68v24" id="V"/><g id="h"><use transform="matrix(0.06172839506172839,0,0,0.06172839506172839,0,0)" xlink:href="#U"/><use transform="matrix(0.06172839506172839,0,0,0.06172839506172839,15.987654320987653,0)" xlink:href="#O"/><use transform="matrix(0.06172839506172839,0,0,0.06172839506172839,28.333333333333332,0)" xlink:href="#V"/><use transform="matrix(0.06172839506172839,0,0,0.06172839506172839,34.50617283950617,0)" xlink:href="#I"/><use transform="matrix(0.06172839506172839,0,0,0.06172839506172839,39.382716049382715,0)" xlink:href="#F"/><use transform="matrix(0.06172839506172839,0,0,0.06172839506172839,51.72839506172839,0)" xlink:href="#O"/></g><path d="M210-169c-67 3-38 105-44 169h-31v-121c0-29-5-50-35-48C34-165 62-65 56 0H25l-1-190h30c1 10-1 24 2 32 10-44 99-50 107 0 11-21 27-35 58-36 85-2 47 119 55 194h-31v-121c0-29-5-49-35-48" id="W"/><g id="i"><use transform="matrix(0.06172839506172839,0,0,0.06172839506172839,0,0)" xlink:href="#W"/><use transform="matrix(0.06172839506172839,0,0,0.06172839506172839,18.456790123456788,0)" xlink:href="#I"/><use transform="matrix(0.06172839506172839,0,0,0.06172839506172839,23.33333333333333,0)" xlink:href="#F"/></g><g id="j"><use transform="matrix(0.06172839506172839,0,0,0.06172839506172839,0,0)" xlink:href="#H"/><use transform="matrix(0.06172839506172839,0,0,0.06172839506172839,11.11111111111111,0)" xlink:href="#J"/><use transform="matrix(0.06172839506172839,0,0,0.06172839506172839,23.45679012345679,0)" xlink:href="#W"/><use transform="matrix(0.06172839506172839,0,0,0.06172839506172839,41.91358024691358,0)" xlink:href="#J"/></g><use transform="matrix(0.06172839506172839,0,0,0.06172839506172839,0,0)" xlink:href="#I" id="k"/><path d="M24-231v-30h32v30H24zM-9 49c24 4 33-6 33-30v-209h32V24c2 40-23 58-65 49V49" id="X"/><use transform="matrix(0.06172839506172839,0,0,0.06172839506172839,0,0)" xlink:href="#X" id="l"/><path d="M118-107v75H92v-75H18v-26h74v-75h26v75h74v26h-74" id="Y"/><g id="m"><use transform="matrix(0.06172839506172839,0,0,0.06172839506172839,0,0)" xlink:href="#I"/><use transform="matrix(0.06172839506172839,0,0,0.06172839506172839,4.876543209876543,0)" xlink:href="#Y"/><use transform="matrix(0.06172839506172839,0,0,0.06172839506172839,17.839506172839506,0)" xlink:href="#T"/></g><use transform="matrix(0.06172839506172839,0,0,0.06172839506172839,0,0)" xlink:href="#F" id="n"/><path d="M135-143c-3-34-86-38-87 0 15 53 115 12 119 90S17 21 10-45l28-5c4 36 97 45 98 0-10-56-113-15-118-90-4-57 82-63 122-42 12 7 21 19 24 35" id="Z"/><g id="o"><use transform="matrix(0.06172839506172839,0,0,0.06172839506172839,0,0)" xlink:href="#Z"/><use transform="matrix(0.06172839506172839,0,0,0.06172839506172839,11.11111111111111,0)" xlink:href="#O"/></g><path d="M179-190L93 31C79 59 56 82 12 73V49c39 6 53-20 64-50L1-190h34L92-34l54-156h33" id="aa"/><path d="M26 75v-336h71v23H56V52h41v23H26" id="ab"/><path d="M3 75V52h41v-290H3v-23h71V75H3" id="ac"/><g id="p"><use transform="matrix(0.06172839506172839,0,0,0.06172839506172839,0,0)" xlink:href="#L"/><use transform="matrix(0.06172839506172839,0,0,0.06172839506172839,12.345679012345679,0)" xlink:href="#M"/><use transform="matrix(0.06172839506172839,0,0,0.06172839506172839,19.691358024691358,0)" xlink:href="#M"/><use transform="matrix(0.06172839506172839,0,0,0.06172839506172839,27.037037037037038,0)" xlink:href="#L"/><use transform="matrix(0.06172839506172839,0,0,0.06172839506172839,39.382716049382715,0)" xlink:href="#aa"/><use transform="matrix(0.06172839506172839,0,0,0.06172839506172839,50.49382716049382,0)" xlink:href="#ab"/><use transform="matrix(0.06172839506172839,0,0,0.06172839506172839,56.666666666666664,0)" xlink:href="#X"/><use transform="matrix(0.06172839506172839,0,0,0.06172839506172839,61.54320987654321,0)" xlink:href="#ac"/></g><path d="M18-100v-36l175-74v27L42-118l151 64v27" id="ad"/><use transform="matrix(0.06172839506172839,0,0,0.06172839506172839,0,0)" xlink:href="#ad" id="q"/><g id="r"><use transform="matrix(0.06172839506172839,0,0,0.06172839506172839,0,0)" xlink:href="#L"/><use transform="matrix(0.06172839506172839,0,0,0.06172839506172839,12.345679012345679,0)" xlink:href="#M"/><use transform="matrix(0.06172839506172839,0,0,0.06172839506172839,19.691358024691358,0)" xlink:href="#M"/><use transform="matrix(0.06172839506172839,0,0,0.06172839506172839,27.037037037037038,0)" xlink:href="#L"/><use transform="matrix(0.06172839506172839,0,0,0.06172839506172839,39.382716049382715,0)" xlink:href="#aa"/><use transform="matrix(0.06172839506172839,0,0,0.06172839506172839,50.49382716049382,0)" xlink:href="#ab"/><use transform="matrix(0.06172839506172839,0,0,0.06172839506172839,56.666666666666664,0)" xlink:href="#W"/><use transform="matrix(0.06172839506172839,0,0,0.06172839506172839,75.12345679012346,0)" xlink:href="#I"/><use transform="matrix(0.06172839506172839,0,0,0.06172839506172839,80,0)" xlink:href="#F"/><use transform="matrix(0.06172839506172839,0,0,0.06172839506172839,92.34567901234568,0)" xlink:href="#ac"/></g><g id="s"><use transform="matrix(0.06172839506172839,0,0,0.06172839506172839,0,0)" xlink:href="#W"/><use transform="matrix(0.06172839506172839,0,0,0.06172839506172839,18.456790123456788,0)" xlink:href="#I"/><use transform="matrix(0.06172839506172839,0,0,0.06172839506172839,23.33333333333333,0)" xlink:href="#F"/></g><path d="M18-150v-26h174v26H18zm0 90v-26h174v26H18" id="ae"/><use transform="matrix(0.06172839506172839,0,0,0.06172839506172839,0,0)" xlink:href="#ae" id="t"/><use transform="matrix(0.06172839506172839,0,0,0.06172839506172839,0,0)" xlink:href="#X" id="u"/><use transform="matrix(0.06172839506172839,0,0,0.06172839506172839,0,0)" xlink:href="#X" id="v"/><use transform="matrix(0.06172839506172839,0,0,0.06172839506172839,0,0)" xlink:href="#S" id="w"/><use transform="matrix(0.06172839506172839,0,0,0.06172839506172839,0,0)" xlink:href="#T" id="x"/><path d="M175 0L67-191c6 58 2 128 3 191H24v-248h59L193-55c-6-58-2-129-3-193h46V0h-61" id="af"/><path d="M132-34C116-15 102 5 68 4 31 3 10-16 10-54c-1-60 55-63 116-61 1-26-3-47-28-47-18 1-26 9-28 27l-52-2c7-38 36-58 82-57s74 22 75 68l1 82c-1 14 12 18 25 15v27c-30 8-71 5-69-32zm-48 3c29 0 43-24 42-57-32 0-66-3-65 30 0 17 8 27 23 27zm82-228c-2 27-9 52-40 51-27-1-66-46-73 0H29c0-29 9-51 39-51 28 0 66 44 74 0h24" id="ag"/><path d="M110-194c64 0 96 36 96 99 0 64-35 99-97 99-61 0-95-36-95-99 0-62 34-99 96-99zm-1 164c35 0 45-28 45-65 0-40-10-65-43-65-34 0-45 26-45 65 0 36 10 65 43 65" id="ah"/><g id="y"><use transform="matrix(0.04938271604938272,0,0,0.04938271604938272,0,0)" xlink:href="#af"/><use transform="matrix(0.04938271604938272,0,0,0.04938271604938272,12.790123456790125,0)" xlink:href="#ag"/><use transform="matrix(0.04938271604938272,0,0,0.04938271604938272,22.66666666666667,0)" xlink:href="#ah"/></g><path d="M63-220v92h138v28H63V0H30v-248h175v28H63" id="ai"/><g id="z"><use transform="matrix(0.06172839506172839,0,0,0.06172839506172839,0,0)" xlink:href="#ai"/><use transform="matrix(0.06172839506172839,0,0,0.06172839506172839,13.518518518518517,0)" xlink:href="#I"/><use transform="matrix(0.06172839506172839,0,0,0.06172839506172839,18.39506172839506,0)" xlink:href="#W"/></g><path d="M169-182c-1-43-94-46-97-3 18 66 151 10 154 114 3 95-165 93-204 36-6-8-10-19-12-30l50-8c3 46 112 56 116 5-17-69-150-10-154-114-4-87 153-88 188-35 5 8 8 18 10 28" id="aj"/><path d="M25-224v-37h50v37H25zM25 0v-190h50V0H25" id="ak"/><path d="M220-157c-53 9-28 100-34 157h-49v-107c1-27-5-49-29-50C55-147 81-57 75 0H25l-1-190h47c2 12-1 28 3 38 10-53 101-56 108 0 13-22 24-43 59-42 82 1 51 116 57 194h-49v-107c-1-25-5-48-29-50" id="al"/><g id="A"><use transform="matrix(0.04938271604938272,0,0,0.04938271604938272,0,0)" xlink:href="#aj"/><use transform="matrix(0.04938271604938272,0,0,0.04938271604938272,11.851851851851853,0)" xlink:href="#ak"/><use transform="matrix(0.04938271604938272,0,0,0.04938271604938272,16.790123456790127,0)" xlink:href="#al"/></g><path d="M127-220V0H93v-220H8v-28h204v28h-85" id="am"/><g id="B"><use transform="matrix(0.06172839506172839,0,0,0.06172839506172839,0,0)" xlink:href="#am"/><use transform="matrix(0.06172839506172839,0,0,0.06172839506172839,12.716049382716047,0)" xlink:href="#M"/><use transform="matrix(0.06172839506172839,0,0,0.06172839506172839,20.061728395061728,0)" xlink:href="#J"/><use transform="matrix(0.06172839506172839,0,0,0.06172839506172839,32.407407407407405,0)" xlink:href="#H"/><use transform="matrix(0.06172839506172839,0,0,0.06172839506172839,43.51851851851852,0)" xlink:href="#L"/></g><g id="C"><use transform="matrix(0.06172839506172839,0,0,0.06172839506172839,0,0)" xlink:href="#L"/><use transform="matrix(0.06172839506172839,0,0,0.06172839506172839,12.345679012345679,0)" xlink:href="#M"/><use transform="matrix(0.06172839506172839,0,0,0.06172839506172839,19.691358024691358,0)" xlink:href="#M"/><use transform="matrix(0.06172839506172839,0,0,0.06172839506172839,27.037037037037038,0)" xlink:href="#L"/><use transform="matrix(0.06172839506172839,0,0,0.06172839506172839,39.382716049382715,0)" xlink:href="#aa"/><use transform="matrix(0.06172839506172839,0,0,0.06172839506172839,50.49382716049382,0)" xlink:href="#ab"/><use transform="matrix(0.06172839506172839,0,0,0.06172839506172839,56.666666666666664,0)" xlink:href="#I"/><use transform="matrix(0.06172839506172839,0,0,0.06172839506172839,61.54320987654321,0)" xlink:href="#ac"/></g><g id="D"><use transform="matrix(0.06172839506172839,0,0,0.06172839506172839,0,0)" xlink:href="#H"/><use transform="matrix(0.06172839506172839,0,0,0.06172839506172839,11.11111111111111,0)" xlink:href="#J"/><use transform="matrix(0.06172839506172839,0,0,0.06172839506172839,23.45679012345679,0)" xlink:href="#W"/></g></defs></g></svg>