<svg xmlns="http://www.w3.org/2000/svg" xmlns:xlink="http://www.w3.org/1999/xlink" xmlns:lucid="lucid" width="1684" height="750"><g transform="translate(-19 201)" lucid:page-tab-id="0_0"><path d="M188 126.17c29.82 0 54 24.17 54 54 0 29.82-24.18 54-54 54H94c-29.82 0-54-24.18-54-54 0-29.83 24.18-54 54-54z" stroke="#3a414a" stroke-width="2" fill="#fff"/><use xlink:href="#a" transform="matrix(1,0,0,1,52,138.16666666666663) translate(62.48765432098766 46.65277777777778)"/><path d="M342 105.17a6 6 0 0 1 6-6h190a6 6 0 0 1 6 6v150a6 6 0 0 1-6 6H348a6 6 0 0 1-6-6z" stroke="#3a414a" stroke-width="2" fill="#fff"/><use xlink:href="#b" transform="matrix(1,0,0,1,354,111.16666666666663) translate(38.41358024691358 47.96527777777778)"/><use xlink:href="#c" transform="matrix(1,0,0,1,354,111.16666666666663) translate(91.43827160493828 47.96527777777778)"/><use xlink:href="#d" transform="matrix(1,0,0,1,354,111.16666666666663) translate(23.320987654320987 74.63194444444446)"/><use xlink:href="#e" transform="matrix(1,0,0,1,354,111.16666666666663) translate(105.97530864197532 74.63194444444446)"/><use xlink:href="#f" transform="matrix(1,0,0,1,354,111.16666666666663) translate(117.0246913580247 74.63194444444446)"/><use xlink:href="#g" transform="matrix(1,0,0,1,354,111.16666666666663) translate(136.1604938271605 74.63194444444446)"/><use xlink:href="#h" transform="matrix(1,0,0,1,354,111.16666666666663) translate(65.91358024691358 101.29861111111111)"/><use xlink:href="#i" transform="matrix(1,0,0,1,354,111.16666666666663) translate(76.96296296296296 101.29861111111111)"/><use xlink:href="#j" transform="matrix(1,0,0,1,354,111.16666666666663) translate(96.09876543209876 101.29861111111111)"/><path d="M620 106.17a6 6 0 0 1 6-6h190a6 6 0 0 1 6 6v150a6 6 0 0 1-6 6H626a6 6 0 0 1-6-6z" stroke="#3a414a" stroke-width="2" fill="#fff"/><use xlink:href="#k" transform="matrix(1,0,0,1,632,112.16666666666663) translate(55.45061728395061 73.84027777777777)"/><use xlink:href="#f" transform="matrix(1,0,0,1,632,112.16666666666663) translate(66.5 73.84027777777777)"/><use xlink:href="#e" transform="matrix(1,0,0,1,632,112.16666666666663) translate(85.6358024691358 73.84027777777777)"/><use xlink:href="#l" transform="matrix(1,0,0,1,632,112.16666666666663) translate(96.68518518518519 73.84027777777777)"/><use xlink:href="#m" transform="matrix(1,0,0,1,632,112.16666666666663) translate(110.2037037037037 73.84027777777777)"/><path d="M1435.32 103.92a7.5 7.5 0 0 1 9.37 0l90.62 72.5a4.8 4.8 0 0 1 0 7.5l-90.63 72.5a7.5 7.5 0 0 1-9.38 0l-90.63-72.5a4.8 4.8 0 0 1-.02-7.5z" stroke="#3a414a" stroke-width="2" fill="#fff"/><use xlink:href="#k" transform="matrix(1,0,0,1,1345,105.16666666666663) translate(49.35685185185186 64.65277777777777)"/><use xlink:href="#n" transform="matrix(1,0,0,1,1345,105.16666666666663) translate(60.40623456790124 64.65277777777777)"/><use xlink:href="#o" transform="matrix(1,0,0,1,1345,105.16666666666663) translate(92.505 64.65277777777777)"/><use xlink:href="#p" transform="matrix(1,0,0,1,1345,105.16666666666663) translate(111.02351851851851 64.65277777777777)"/><use xlink:href="#q" transform="matrix(1,0,0,1,1345,105.16666666666663) translate(30.591419753086424 91.31944444444446)"/><use xlink:href="#i" transform="matrix(1,0,0,1,1345,105.16666666666663) translate(72.56672839506173 91.31944444444446)"/><use xlink:href="#r" transform="matrix(1,0,0,1,1345,105.16666666666663) translate(91.70253086419753 91.31944444444446)"/><path d="M1160 366a6 6 0 0 1 6-6h190a6 6 0 0 1 6 6v150a6 6 0 0 1-6 6h-190a6 6 0 0 1-6-6z" stroke="#3a414a" stroke-width="2" fill="#fff"/><use xlink:href="#s" transform="matrix(1,0,0,1,1172,372) translate(32.91975308641975 60.90277777777778)"/><use xlink:href="#t" transform="matrix(1,0,0,1,1172,372) translate(132.1172839506173 60.90277777777778)"/><use xlink:href="#r" transform="matrix(1,0,0,1,1172,372) translate(55.141975308641975 87.56944444444446)"/><path d="M1334.2 310h-67.16l-.83.07-.75.2-.73.3-.67.4-.6.5-.5.6-.42.68-.3.73-.2.77-.06.82v25.43h-1.94V315l.08-1.06.26-1.06.42-1.02.58-.93.7-.83.84-.7.93-.58 1-.42 1.08-.26 1.06-.08h67.24zm106.77-6.93l-.08 1.05-.26 1.07-.42 1-.58.93-.7.84-.84.7-.93.58-1 .42-1.08.25-1.06.1h-67.24v-1.96h67.16l.83-.07.75-.2.73-.3.67-.4.6-.52.5-.6.42-.67.3-.72.2-.76.06-.83v-42.94h1.94z" stroke="#5e5e5e" stroke-width=".05" fill="#5e5e5e"/><path d="M1440 259.06l.97-.06v1.1h-1.94V259z" fill="#5e5e5e"/><path stroke="#5e5e5e" stroke-width=".05" fill="#5e5e5e"/><path d="M1261 355.76l-4.63-14.26h9.27z" fill="#5e5e5e"/><path d="M1261 358.92l-5.98-18.4h11.96zm-3.3-16.45l3.3 10.14 3.3-10.13z" stroke="#5e5e5e" stroke-width=".05" fill="#5e5e5e"/><use xlink:href="#u" transform="matrix(1,0,0,1,1334.2037037037037,298.36547779775117) translate(0 14.222222222222223)"/><path d="M822-174a6 6 0 0 1 6-6h190a6 6 0 0 1 6 6v150a6 6 0 0 1-6 6H828a6 6 0 0 1-6-6z" stroke="#3a414a" stroke-width="2" fill="#fff"/><use xlink:href="#s" transform="matrix(1,0,0,1,834,-168) translate(11.932098765432102 73.84027777777777)"/><use xlink:href="#f" transform="matrix(1,0,0,1,834,-168) translate(111.12962962962963 73.84027777777777)"/><use xlink:href="#v" transform="matrix(1,0,0,1,834,-168) translate(130.26543209876542 73.84027777777777)"/><path d="M490 420c29.82 0 54 24.18 54 54s-24.18 54-54 54h-94c-29.82 0-54-24.18-54-54s24.18-54 54-54z" stroke="#3a414a" stroke-width="2" fill="#fff"/><use xlink:href="#w" transform="matrix(1,0,0,1,354,432) translate(70.57407407407408 46.65277777777778)"/><path d="M244 180.17h78.5" stroke="#5e5e5e" stroke-width="2" fill="none"/><path d="M244.03 181.14h-1.07l.04-.97-.04-.98h1.07z" stroke="#5e5e5e" stroke-width=".05" fill="#5e5e5e"/><path d="M337.76 180.17l-14.26 4.63v-9.27z" stroke="#5e5e5e" stroke-width="2" fill="#5e5e5e"/><path d="M546 180.17h35.5a.5.5 0 0 1 .5.5.5.5 0 0 0 .5.5h18" stroke="#5e5e5e" stroke-width="2" fill="none"/><path d="M546.03 181.14H545v-1.95h1.03z" stroke="#5e5e5e" stroke-width=".05" fill="#5e5e5e"/><path d="M615.76 181.17l-14.26 4.63v-9.27z" stroke="#5e5e5e" stroke-width="2" fill="#5e5e5e"/><path d="M1364 441h96.5" stroke="#5e5e5e" stroke-width="2" fill="none"/><path d="M1364.03 441.98H1363v-1.96h1.03z" stroke="#5e5e5e" stroke-width=".05" fill="#5e5e5e"/><path d="M1475.76 441l-14.26 4.63v-9.26z" stroke="#5e5e5e" stroke-width="2" fill="#5e5e5e"/><path d="M1581 358V186.17a6 6 0 0 0-6-6h-18.38" stroke="#5e5e5e" stroke-width="2" fill="none"/><path d="M1581.97 359h-1.94v-1.03h1.94z" stroke="#5e5e5e" stroke-width=".05" fill="#5e5e5e"/><path d="M1541.36 180.17l14.26-4.64v9.27z" stroke="#5e5e5e" stroke-width="2" fill="#5e5e5e"/><path d="M1480 366a6 6 0 0 1 6-6h190a6 6 0 0 1 6 6v150a6 6 0 0 1-6 6h-190a6 6 0 0 1-6-6z" stroke="#3a414a" stroke-width="2" fill="#fff"/><g><use xlink:href="#k" transform="matrix(1,0,0,1,1492,372) translate(55.45061728395061 73.84027777777777)"/><use xlink:href="#f" transform="matrix(1,0,0,1,1492,372) translate(66.5 73.84027777777777)"/><use xlink:href="#x" transform="matrix(1,0,0,1,1492,372) translate(85.6358024691358 73.84027777777777)"/><use xlink:href="#l" transform="matrix(1,0,0,1,1492,372) translate(96.68518518518519 73.84027777777777)"/><use xlink:href="#m" transform="matrix(1,0,0,1,1492,372) translate(110.2037037037037 73.84027777777777)"/></g><path d="M1435.1-99.9l1.06.26 1 .42.94.58.83.7.7.84.6.93.4 1 .26 1.08.07 1.06v193.3h-1.94V-92.95l-.07-.83-.18-.75-.3-.73-.42-.67-.5-.6-.6-.5-.68-.42-.73-.3-.76-.2-.84-.06h-84.6l.02-1.94h84.66zM1043.5-98v-1.95h272.4v1.94z" stroke="#5e5e5e" stroke-width=".05" fill="#5e5e5e"/><path d="M1440.97 101.33l-.97-.06-.97.06v-1.1h1.94z" fill="#5e5e5e"/><path stroke="#5e5e5e" stroke-width=".05" fill="#5e5e5e"/><path d="M1042.5-94.36L1028.24-99l14.26-4.64z" fill="#5e5e5e"/><path d="M1043.48-93.02l-18.4-5.98 18.4-5.98zm-12.1-5.98l10.15 3.3v-6.6z" stroke="#5e5e5e" stroke-width=".05" fill="#5e5e5e"/><g><use xlink:href="#y" transform="matrix(1,0,0,1,1315.8937814615083,-109.66666666666666) translate(0 14.222222222222223)"/></g><path d="M443 263.17V400.5" stroke="#5e5e5e" stroke-width="2" fill="none"/><path d="M443.98 263.2h-1.96v-1.03h1.96z" stroke="#5e5e5e" stroke-width=".05" fill="#5e5e5e"/><path d="M443 415.76l-4.63-14.26h9.26z" stroke="#5e5e5e" stroke-width="2" fill="#5e5e5e"/><path d="M820-99H449a6 6 0 0 0-6 6V79.67" stroke="#5e5e5e" stroke-width="2" fill="none"/><path d="M821-98.03h-1.03v-1.94H821z" stroke="#5e5e5e" stroke-width=".05" fill="#5e5e5e"/><path d="M443 94.93l-4.63-14.27h9.26z" stroke="#5e5e5e" stroke-width="2" fill="#5e5e5e"/><path d="M824 181.17h156.5" stroke="#5e5e5e" stroke-width="2" fill="none"/><path d="M824.03 182.14H823v-1.95h1.03z" stroke="#5e5e5e" stroke-width=".05" fill="#5e5e5e"/><path d="M995.76 181.17l-14.26 4.63v-9.27z" stroke="#5e5e5e" stroke-width="2" fill="#5e5e5e"/><path d="M1000 106.17a6 6 0 0 1 6-6h190a6 6 0 0 1 6 6v150a6 6 0 0 1-6 6h-190a6 6 0 0 1-6-6z" stroke="#3a414a" stroke-width="2" fill="#fff"/><g><use xlink:href="#z" transform="matrix(1,0,0,1,1012,112.16666666666663) translate(24.586419753086417 73.84027777777777)"/><use xlink:href="#f" transform="matrix(1,0,0,1,1012,112.16666666666663) translate(66.56172839506172 73.84027777777777)"/><use xlink:href="#A" transform="matrix(1,0,0,1,1012,112.16666666666663) translate(85.69753086419753 73.84027777777777)"/></g><path d="M1204 181.17h67.94a.5.5 0 0 0 .5-.5.5.5 0 0 1 .5-.5h50.44" stroke="#5e5e5e" stroke-width="2" fill="none"/><path d="M1204.03 182.14H1203v-1.95h1.03z" stroke="#5e5e5e" stroke-width=".05" fill="#5e5e5e"/><path d="M1338.64 180.17l-14.26 4.63v-9.27z" stroke="#5e5e5e" stroke-width="2" fill="#5e5e5e"/><defs><path d="M33 0v-248h34V0H33" id="B"/><path d="M117-194c89-4 53 116 60 194h-32v-121c0-31-8-49-39-48C34-167 62-67 57 0H25l-1-190h30c1 10-1 24 2 32 11-22 29-35 61-36" id="C"/><path d="M34 0v-190h32V0H34zM24-211c8-23 27-35 38-54h36v5l-58 49H24" id="D"/><path d="M96-169c-40 0-48 33-48 73s9 75 48 75c24 0 41-14 43-38l32 2c-6 37-31 61-74 61-59 0-76-41-82-99-10-93 101-131 147-64 4 7 5 14 7 22l-32 3c-4-21-16-35-41-35" id="E"/><path d="M24-231v-30h32v30H24zM24 0v-190h32V0H24" id="F"/><path d="M100-194c62-1 85 37 85 99 1 63-27 99-86 99S16-35 15-95c0-66 28-99 85-99zM99-20c44 1 53-31 53-75 0-43-8-75-51-75s-53 32-53 75 10 74 51 75" id="G"/><g id="a"><use transform="matrix(0.06172839506172839,0,0,0.06172839506172839,0,0)" xlink:href="#B"/><use transform="matrix(0.06172839506172839,0,0,0.06172839506172839,6.172839506172839,0)" xlink:href="#C"/><use transform="matrix(0.06172839506172839,0,0,0.06172839506172839,18.51851851851852,0)" xlink:href="#D"/><use transform="matrix(0.06172839506172839,0,0,0.06172839506172839,24.691358024691358,0)" xlink:href="#E"/><use transform="matrix(0.06172839506172839,0,0,0.06172839506172839,35.80246913580247,0)" xlink:href="#F"/><use transform="matrix(0.06172839506172839,0,0,0.06172839506172839,40.67901234567901,0)" xlink:href="#G"/></g><path d="M30-248c87 1 191-15 191 75 0 78-77 80-158 76V0H30v-248zm33 125c57 0 124 11 124-50 0-59-68-47-124-48v98" id="H"/><path d="M141-36C126-15 110 5 73 4 37 3 15-17 15-53c-1-64 63-63 125-63 3-35-9-54-41-54-24 1-41 7-42 31l-33-3c5-37 33-52 76-52 45 0 72 20 72 64v82c-1 20 7 32 28 27v20c-31 9-61-2-59-35zM48-53c0 20 12 33 32 33 41-3 63-29 60-74-43 2-92-5-92 41" id="I"/><path d="M114-163C36-179 61-72 57 0H25l-1-190h30c1 12-1 29 2 39 6-27 23-49 58-41v29" id="J"/><g id="b"><use transform="matrix(0.06172839506172839,0,0,0.06172839506172839,0,0)" xlink:href="#H"/><use transform="matrix(0.06172839506172839,0,0,0.06172839506172839,14.814814814814813,0)" xlink:href="#I"/><use transform="matrix(0.06172839506172839,0,0,0.06172839506172839,27.160493827160494,0)" xlink:href="#J"/><use transform="matrix(0.06172839506172839,0,0,0.06172839506172839,34.50617283950617,0)" xlink:href="#I"/></g><path d="M85-194c31 0 48 13 60 33l-1-100h32l1 261h-30c-2-10 0-23-3-31C134-8 116 4 85 4 32 4 16-35 15-94c0-66 23-100 70-100zm9 24c-40 0-46 34-46 75 0 40 6 74 45 74 42 0 51-32 51-76 0-42-9-74-50-73" id="K"/><g id="c"><use transform="matrix(0.06172839506172839,0,0,0.06172839506172839,0,0)" xlink:href="#E"/><use transform="matrix(0.06172839506172839,0,0,0.06172839506172839,11.11111111111111,0)" xlink:href="#I"/><use transform="matrix(0.06172839506172839,0,0,0.06172839506172839,23.45679012345679,0)" xlink:href="#K"/><use transform="matrix(0.06172839506172839,0,0,0.06172839506172839,35.80246913580247,0)" xlink:href="#I"/></g><path d="M115-194c55 1 70 41 70 98S169 2 115 4C84 4 66-9 55-30l1 105H24l-1-265h31l2 30c10-21 28-34 59-34zm-8 174c40 0 45-34 45-75s-6-73-45-74c-42 0-51 32-51 76 0 43 10 73 51 73" id="L"/><path d="M135-143c-3-34-86-38-87 0 15 53 115 12 119 90S17 21 10-45l28-5c4 36 97 45 98 0-10-56-113-15-118-90-4-57 82-63 122-42 12 7 21 19 24 35" id="M"/><path d="M96-169c-40 0-48 33-48 73s9 75 48 75c24 0 41-14 43-38l32 2c-6 37-31 61-74 61-59 0-76-41-82-99-10-93 101-131 147-64 4 7 5 14 7 22l-32 3c-4-21-16-35-41-35zm3 187c19-1 33 8 33 26 0 31-30 33-64 32V58c18 2 39 4 41-13 1-15-18-13-34-13L87 0h19" id="N"/><path d="M141-36C126-15 110 5 73 4 37 3 15-17 15-53c-1-64 63-63 125-63 3-35-9-54-41-54-24 1-41 7-42 31l-33-3c5-37 33-52 76-52 45 0 72 20 72 64v82c-1 20 7 32 28 27v20c-31 9-61-2-59-35zM48-53c0 20 12 33 32 33 41-3 63-29 60-74-43 2-92-5-92 41zm117-205c-3 23-9 48-36 47-26-1-65-44-74 0H39c4-23 8-48 36-47s64 44 74 0h16" id="O"/><g id="d"><use transform="matrix(0.06172839506172839,0,0,0.06172839506172839,0,0)" xlink:href="#L"/><use transform="matrix(0.06172839506172839,0,0,0.06172839506172839,12.345679012345679,0)" xlink:href="#G"/><use transform="matrix(0.06172839506172839,0,0,0.06172839506172839,24.691358024691358,0)" xlink:href="#M"/><use transform="matrix(0.06172839506172839,0,0,0.06172839506172839,35.80246913580247,0)" xlink:href="#F"/><use transform="matrix(0.06172839506172839,0,0,0.06172839506172839,40.67901234567901,0)" xlink:href="#N"/><use transform="matrix(0.06172839506172839,0,0,0.06172839506172839,51.79012345679013,0)" xlink:href="#O"/><use transform="matrix(0.06172839506172839,0,0,0.06172839506172839,64.13580246913581,0)" xlink:href="#G"/></g><use transform="matrix(0.06172839506172839,0,0,0.06172839506172839,0,0)" xlink:href="#F" id="e"/><path d="M18-150v-26h174v26H18zm0 90v-26h174v26H18" id="P"/><use transform="matrix(0.06172839506172839,0,0,0.06172839506172839,0,0)" xlink:href="#P" id="f"/><path d="M101-251c68 0 85 55 85 127S166 4 100 4C33 4 14-52 14-124c0-73 17-127 87-127zm-1 229c47 0 54-49 54-102s-4-102-53-102c-51 0-55 48-55 102 0 53 5 102 54 102" id="Q"/><path d="M68-36c1 33-1 63-14 82H32c9-13 17-26 17-46H33v-36h35zM33-154v-36h35v36H33" id="R"/><g id="g"><use transform="matrix(0.06172839506172839,0,0,0.06172839506172839,0,0)" xlink:href="#Q"/><use transform="matrix(0.06172839506172839,0,0,0.06172839506172839,12.345679012345679,0)" xlink:href="#R"/></g><use transform="matrix(0.06172839506172839,0,0,0.06172839506172839,0,0)" xlink:href="#F" id="h"/><path d="M18-100v-36l175-74v27L42-118l151 64v27" id="S"/><use transform="matrix(0.06172839506172839,0,0,0.06172839506172839,0,0)" xlink:href="#S" id="i"/><path d="M190 0L58-211 59 0H30v-248h39L202-35l-2-213h31V0h-41" id="T"/><use transform="matrix(0.06172839506172839,0,0,0.06172839506172839,0,0)" xlink:href="#T" id="j"/><path d="M24-231v-30h32v30H24zM-9 49c24 4 33-6 33-30v-209h32V24c2 40-23 58-65 49V49" id="U"/><use transform="matrix(0.06172839506172839,0,0,0.06172839506172839,0,0)" xlink:href="#U" id="k"/><path d="M16-82v-28h88v28H16" id="V"/><use transform="matrix(0.06172839506172839,0,0,0.06172839506172839,0,0)" xlink:href="#V" id="l"/><path d="M27 0v-27h64v-190l-56 39v-29l58-41h29v221h61V0H27" id="W"/><use transform="matrix(0.06172839506172839,0,0,0.06172839506172839,0,0)" xlink:href="#W" id="m"/><path d="M18-27v-27l151-64-151-65v-27l175 74v36" id="X"/><g id="n"><use transform="matrix(0.06172839506172839,0,0,0.06172839506172839,0,0)" xlink:href="#X"/><use transform="matrix(0.06172839506172839,0,0,0.06172839506172839,12.962962962962962,0)" xlink:href="#P"/></g><use transform="matrix(0.06172839506172839,0,0,0.06172839506172839,0,0)" xlink:href="#Q" id="o"/><path d="M234-2c-28 10-62 0-77-18C117 19 8 12 13-65c3-43 29-61 60-76-25-40-17-114 47-108 35 3 59 15 59 50 0 44-40 53-71 69 14 26 32 50 51 72 14-21 24-43 30-72l26 8c-9 33-21 57-38 82 13 13 33 22 57 15v23zM97-151c25-10 52-18 56-48-1-18-13-29-33-29-42 0-39 50-23 77zM42-66c-3 51 71 58 98 28-20-24-41-51-56-80-23 10-40 24-42 52" id="Y"/><g id="p"><use transform="matrix(0.06172839506172839,0,0,0.06172839506172839,0,0)" xlink:href="#Y"/><use transform="matrix(0.06172839506172839,0,0,0.06172839506172839,14.814814814814813,0)" xlink:href="#Y"/></g><path d="M84 4C-5 8 30-112 23-190h32v120c0 31 7 50 39 49 72-2 45-101 50-169h31l1 190h-30c-1-10 1-25-2-33-11 22-28 36-60 37" id="Z"/><path d="M141 0L90-78 38 0H4l68-98-65-92h35l48 74 47-74h35l-64 92 68 98h-35" id="aa"/><g id="q"><use transform="matrix(0.06172839506172839,0,0,0.06172839506172839,0,0)" xlink:href="#I"/><use transform="matrix(0.06172839506172839,0,0,0.06172839506172839,12.345679012345679,0)" xlink:href="#Z"/><use transform="matrix(0.06172839506172839,0,0,0.06172839506172839,24.691358024691358,0)" xlink:href="#aa"/></g><path d="M179-190L93 31C79 59 56 82 12 73V49c39 6 53-20 64-50L1-190h34L92-34l54-156h33" id="ab"/><path d="M26 75v-336h71v23H56V52h41v23H26" id="ac"/><path d="M3 75V52h41v-290H3v-23h71V75H3" id="ad"/><g id="r"><use transform="matrix(0.06172839506172839,0,0,0.06172839506172839,0,0)" xlink:href="#I"/><use transform="matrix(0.06172839506172839,0,0,0.06172839506172839,12.345679012345679,0)" xlink:href="#J"/><use transform="matrix(0.06172839506172839,0,0,0.06172839506172839,19.691358024691358,0)" xlink:href="#J"/><use transform="matrix(0.06172839506172839,0,0,0.06172839506172839,27.037037037037038,0)" xlink:href="#I"/><use transform="matrix(0.06172839506172839,0,0,0.06172839506172839,39.382716049382715,0)" xlink:href="#ab"/><use transform="matrix(0.06172839506172839,0,0,0.06172839506172839,50.49382716049382,0)" xlink:href="#ac"/><use transform="matrix(0.06172839506172839,0,0,0.06172839506172839,56.666666666666664,0)" xlink:href="#U"/><use transform="matrix(0.06172839506172839,0,0,0.06172839506172839,61.54320987654321,0)" xlink:href="#ad"/></g><path d="M118-107v75H92v-75H18v-26h74v-75h26v75h74v26h-74" id="ae"/><g id="s"><use transform="matrix(0.06172839506172839,0,0,0.06172839506172839,0,0)" xlink:href="#I"/><use transform="matrix(0.06172839506172839,0,0,0.06172839506172839,12.345679012345679,0)" xlink:href="#J"/><use transform="matrix(0.06172839506172839,0,0,0.06172839506172839,19.691358024691358,0)" xlink:href="#J"/><use transform="matrix(0.06172839506172839,0,0,0.06172839506172839,27.037037037037038,0)" xlink:href="#I"/><use transform="matrix(0.06172839506172839,0,0,0.06172839506172839,39.382716049382715,0)" xlink:href="#ab"/><use transform="matrix(0.06172839506172839,0,0,0.06172839506172839,50.49382716049382,0)" xlink:href="#ac"/><use transform="matrix(0.06172839506172839,0,0,0.06172839506172839,56.666666666666664,0)" xlink:href="#U"/><use transform="matrix(0.06172839506172839,0,0,0.06172839506172839,61.54320987654321,0)" xlink:href="#ae"/><use transform="matrix(0.06172839506172839,0,0,0.06172839506172839,74.50617283950618,0)" xlink:href="#W"/><use transform="matrix(0.06172839506172839,0,0,0.06172839506172839,86.85185185185186,0)" xlink:href="#ad"/></g><use transform="matrix(0.06172839506172839,0,0,0.06172839506172839,0,0)" xlink:href="#P" id="t"/><path d="M169-182c-1-43-94-46-97-3 18 66 151 10 154 114 3 95-165 93-204 36-6-8-10-19-12-30l50-8c3 46 112 56 116 5-17-69-150-10-154-114-4-87 153-88 188-35 5 8 8 18 10 28" id="af"/><path d="M25-224v-37h50v37H25zM25 0v-190h50V0H25" id="ag"/><path d="M220-157c-53 9-28 100-34 157h-49v-107c1-27-5-49-29-50C55-147 81-57 75 0H25l-1-190h47c2 12-1 28 3 38 10-53 101-56 108 0 13-22 24-43 59-42 82 1 51 116 57 194h-49v-107c-1-25-5-48-29-50" id="ah"/><g id="u"><use transform="matrix(0.04938271604938272,0,0,0.04938271604938272,0,0)" xlink:href="#af"/><use transform="matrix(0.04938271604938272,0,0,0.04938271604938272,11.851851851851853,0)" xlink:href="#ag"/><use transform="matrix(0.04938271604938272,0,0,0.04938271604938272,16.790123456790127,0)" xlink:href="#ah"/></g><g id="v"><use transform="matrix(0.06172839506172839,0,0,0.06172839506172839,0,0)" xlink:href="#I"/><use transform="matrix(0.06172839506172839,0,0,0.06172839506172839,12.345679012345679,0)" xlink:href="#Z"/><use transform="matrix(0.06172839506172839,0,0,0.06172839506172839,24.691358024691358,0)" xlink:href="#aa"/></g><path d="M63-220v92h138v28H63V0H30v-248h175v28H63" id="ai"/><path d="M210-169c-67 3-38 105-44 169h-31v-121c0-29-5-50-35-48C34-165 62-65 56 0H25l-1-190h30c1 10-1 24 2 32 10-44 99-50 107 0 11-21 27-35 58-36 85-2 47 119 55 194h-31v-121c0-29-5-49-35-48" id="aj"/><g id="w"><use transform="matrix(0.06172839506172839,0,0,0.06172839506172839,0,0)" xlink:href="#ai"/><use transform="matrix(0.06172839506172839,0,0,0.06172839506172839,13.518518518518517,0)" xlink:href="#F"/><use transform="matrix(0.06172839506172839,0,0,0.06172839506172839,18.39506172839506,0)" xlink:href="#aj"/></g><use transform="matrix(0.06172839506172839,0,0,0.06172839506172839,0,0)" xlink:href="#U" id="x"/><path d="M175 0L67-191c6 58 2 128 3 191H24v-248h59L193-55c-6-58-2-129-3-193h46V0h-61" id="ak"/><path d="M132-34C116-15 102 5 68 4 31 3 10-16 10-54c-1-60 55-63 116-61 1-26-3-47-28-47-18 1-26 9-28 27l-52-2c7-38 36-58 82-57s74 22 75 68l1 82c-1 14 12 18 25 15v27c-30 8-71 5-69-32zm-48 3c29 0 43-24 42-57-32 0-66-3-65 30 0 17 8 27 23 27zm82-228c-2 27-9 52-40 51-27-1-66-46-73 0H29c0-29 9-51 39-51 28 0 66 44 74 0h24" id="al"/><path d="M110-194c64 0 96 36 96 99 0 64-35 99-97 99-61 0-95-36-95-99 0-62 34-99 96-99zm-1 164c35 0 45-28 45-65 0-40-10-65-43-65-34 0-45 26-45 65 0 36 10 65 43 65" id="am"/><g id="y"><use transform="matrix(0.04938271604938272,0,0,0.04938271604938272,0,0)" xlink:href="#ak"/><use transform="matrix(0.04938271604938272,0,0,0.04938271604938272,12.790123456790125,0)" xlink:href="#al"/><use transform="matrix(0.04938271604938272,0,0,0.04938271604938272,22.66666666666667,0)" xlink:href="#am"/></g><g id="z"><use transform="matrix(0.06172839506172839,0,0,0.06172839506172839,0,0)" xlink:href="#I"/><use transform="matrix(0.06172839506172839,0,0,0.06172839506172839,12.345679012345679,0)" xlink:href="#Z"/><use transform="matrix(0.06172839506172839,0,0,0.06172839506172839,24.691358024691358,0)" xlink:href="#aa"/></g><g id="A"><use transform="matrix(0.06172839506172839,0,0,0.06172839506172839,0,0)" xlink:href="#I"/><use transform="matrix(0.06172839506172839,0,0,0.06172839506172839,12.345679012345679,0)" xlink:href="#J"/><use transform="matrix(0.06172839506172839,0,0,0.06172839506172839,19.691358024691358,0)" xlink:href="#J"/><use transform="matrix(0.06172839506172839,0,0,0.06172839506172839,27.037037037037038,0)" xlink:href="#I"/><use transform="matrix(0.06172839506172839,0,0,0.06172839506172839,39.382716049382715,0)" xlink:href="#ab"/><use transform="matrix(0.06172839506172839,0,0,0.06172839506172839,50.49382716049382,0)" xlink:href="#ac"/><use transform="matrix(0.06172839506172839,0,0,0.06172839506172839,56.666666666666664,0)" xlink:href="#F"/><use transform="matrix(0.06172839506172839,0,0,0.06172839506172839,61.54320987654321,0)" xlink:href="#ad"/></g></defs></g></svg>