<svg xmlns="http://www.w3.org/2000/svg" xmlns:xlink="http://www.w3.org/1999/xlink" width="500" zoomAndPan="magnify" viewBox="0 0 375 374.999991" height="500" preserveAspectRatio="xMidYMid meet" version="1.0"><defs><g/></defs><g fill="#100a09" fill-opacity="1"><g transform="translate(39.465858, 210.825243)"><g><path d="M 65.015625 -48.6875 C 63.773438 -46.394531 62.03125 -44.695312 59.78125 -43.59375 C 57.539062 -42.5 55.082031 -41.859375 52.40625 -41.671875 C 49.738281 -41.484375 47.039062 -41.53125 44.3125 -41.8125 C 41.59375 -42.101562 39.140625 -42.4375 36.953125 -42.8125 C 36.273438 -43.007812 35.625 -43.15625 35 -43.25 C 34.382812 -43.34375 33.742188 -43.4375 33.078125 -43.53125 C 33.265625 -42.675781 33.453125 -41.816406 33.640625 -40.953125 C 33.835938 -40.097656 33.984375 -39.285156 34.078125 -38.515625 C 34.742188 -34.984375 35.390625 -31.453125 36.015625 -27.921875 C 36.640625 -24.390625 37.140625 -20.859375 37.515625 -17.328125 C 37.710938 -15.609375 37.757812 -13.863281 37.65625 -12.09375 C 37.5625 -10.332031 37.273438 -8.640625 36.796875 -7.015625 C 36.128906 -4.628906 34.695312 -2.429688 32.5 -0.421875 C 31.738281 0.242188 30.710938 0.789062 29.421875 1.21875 C 28.140625 1.644531 27.066406 1.332031 26.203125 0.28125 C 25.441406 -0.757812 24.988281 -1.925781 24.84375 -3.21875 C 24.695312 -4.507812 24.53125 -5.773438 24.34375 -7.015625 C 24.25 -7.878906 24.128906 -8.765625 23.984375 -9.671875 C 23.835938 -10.578125 23.71875 -11.503906 23.625 -12.453125 C 22.957031 -14.742188 22.382812 -17.179688 21.90625 -19.765625 C 22 -18.992188 22.09375 -18.25 22.1875 -17.53125 C 22.289062 -16.820312 22.390625 -16.085938 22.484375 -15.328125 C 22.671875 -14.085938 22.835938 -12.84375 22.984375 -11.59375 C 23.128906 -10.351562 23.296875 -9.113281 23.484375 -7.875 C 23.578125 -6.914062 23.695312 -5.9375 23.84375 -4.9375 C 23.988281 -3.9375 23.914062 -3.003906 23.625 -2.140625 C 23.625 -2.046875 23.578125 -2.046875 23.484375 -2.140625 C 22.910156 -3.003906 22.578125 -4.03125 22.484375 -5.21875 C 22.390625 -6.414062 22.242188 -7.492188 22.046875 -8.453125 L 20.765625 -15.890625 C 20.378906 -18.378906 19.992188 -20.835938 19.609375 -23.265625 C 19.234375 -25.703125 18.851562 -28.160156 18.46875 -30.640625 C 17.988281 -33.597656 17.535156 -36.554688 17.109375 -39.515625 C 16.679688 -42.484375 16.226562 -45.445312 15.75 -48.40625 C 11.164062 -50.21875 6.773438 -52.222656 2.578125 -54.421875 C 2.484375 -54.515625 2.484375 -54.609375 2.578125 -54.703125 C 2.671875 -54.796875 2.765625 -54.796875 2.859375 -54.703125 C 4.960938 -53.742188 7.085938 -52.8125 9.234375 -51.90625 C 11.378906 -51 13.503906 -50.164062 15.609375 -49.40625 C 15.515625 -49.882812 15.414062 -50.3125 15.3125 -50.6875 C 15.21875 -51.070312 15.125 -51.457031 15.03125 -51.84375 C 13.414062 -52.507812 11.816406 -53.195312 10.234375 -53.90625 C 8.660156 -54.625 7.0625 -55.320312 5.4375 -56 C 3.914062 -56.757812 2.960938 -58.046875 2.578125 -59.859375 C 2.191406 -61.671875 2.382812 -63.242188 3.15625 -64.578125 C 3.820312 -65.628906 4.867188 -66.488281 6.296875 -67.15625 C 7.734375 -67.832031 9.070312 -67.929688 10.3125 -67.453125 L 11.171875 -67.015625 C 10.304688 -70.171875 9.394531 -73.320312 8.4375 -76.46875 C 7.488281 -79.625 6.488281 -82.726562 5.4375 -85.78125 C 5.0625 -87.019531 5.207031 -88.140625 5.875 -89.140625 C 6.539062 -90.140625 7.398438 -90.832031 8.453125 -91.21875 C 8.359375 -91.882812 8.476562 -92.457031 8.8125 -92.9375 C 9.144531 -93.414062 9.5 -93.847656 9.875 -94.234375 C 12.269531 -95.847656 14.875 -96.394531 17.6875 -95.875 C 20.5 -95.351562 23.050781 -94.519531 25.34375 -93.375 C 27.726562 -92.125 30.039062 -90.804688 32.28125 -89.421875 C 34.53125 -88.046875 36.753906 -86.640625 38.953125 -85.203125 C 43.441406 -82.242188 47.804688 -79.066406 52.046875 -75.671875 C 56.296875 -72.285156 60.472656 -68.78125 64.578125 -65.15625 C 65.722656 -64.195312 66.203125 -63.097656 66.015625 -61.859375 C 66.878906 -60.429688 67.453125 -59 67.734375 -57.5625 C 68.023438 -55.5625 67.90625 -53.84375 67.375 -52.40625 C 66.851562 -50.976562 66.066406 -49.738281 65.015625 -48.6875 Z M 47.828125 -64.015625 C 45.722656 -65.253906 43.644531 -66.46875 41.59375 -67.65625 C 39.539062 -68.851562 37.46875 -70.023438 35.375 -71.171875 C 33.84375 -71.929688 32.265625 -72.71875 30.640625 -73.53125 C 29.023438 -74.34375 27.40625 -75.082031 25.78125 -75.75 C 26.539062 -73.082031 27.253906 -70.363281 27.921875 -67.59375 C 28.585938 -64.820312 29.207031 -62.050781 29.78125 -59.28125 C 32.9375 -58.226562 35.992188 -57.367188 38.953125 -56.703125 C 41.335938 -56.234375 43.742188 -55.878906 46.171875 -55.640625 C 48.609375 -55.398438 51.023438 -55.375 53.421875 -55.5625 C 53.890625 -55.5625 54.382812 -55.582031 54.90625 -55.625 C 55.4375 -55.675781 55.894531 -55.75 56.28125 -55.84375 L 57.421875 -56.140625 C 57.234375 -56.515625 57.046875 -56.800781 56.859375 -57 C 55.898438 -58.519531 54.5625 -59.828125 52.84375 -60.921875 C 51.125 -62.023438 49.453125 -63.054688 47.828125 -64.015625 Z M 40.390625 -44.828125 C 39.140625 -45.015625 37.847656 -45.226562 36.515625 -45.46875 C 35.179688 -45.707031 33.84375 -45.96875 32.5 -46.25 C 32.601562 -46.0625 32.65625 -45.867188 32.65625 -45.671875 C 32.65625 -45.484375 32.703125 -45.296875 32.796875 -45.109375 C 33.078125 -45.015625 33.335938 -44.941406 33.578125 -44.890625 C 33.816406 -44.847656 34.082031 -44.828125 34.375 -44.828125 C 37.132812 -44.441406 39.96875 -44.082031 42.875 -43.75 C 45.789062 -43.414062 48.632812 -43.390625 51.40625 -43.671875 L 56.859375 -44.53125 C 56.859375 -44.625 56.351562 -44.625 55.34375 -44.53125 C 54.34375 -44.4375 53.84375 -44.4375 53.84375 -44.53125 C 51.457031 -44.25 49.070312 -44.15625 46.6875 -44.25 C 44.300781 -44.34375 42.203125 -44.535156 40.390625 -44.828125 Z M 33.21875 -19.625 C 33.414062 -17.226562 33.488281 -14.789062 33.4375 -12.3125 C 33.382812 -9.832031 32.785156 -7.492188 31.640625 -5.296875 L 31.9375 -4.875 C 32.507812 -5.15625 32.984375 -5.488281 33.359375 -5.875 C 34.410156 -8.070312 34.863281 -10.363281 34.71875 -12.75 C 34.582031 -15.132812 34.273438 -17.519531 33.796875 -19.90625 L 32.9375 -24.34375 C 32.84375 -24.25 32.84375 -23.914062 32.9375 -23.34375 C 33.03125 -22.769531 33.03125 -22.484375 32.9375 -22.484375 Z M 33.21875 -19.625 "/></g></g></g><g fill="#100a09" fill-opacity="1"><g transform="translate(100.609253, 210.825243)"><g><path d="M 81.625 -54.5625 L 81.203125 -51.546875 C 81.097656 -50.210938 80.472656 -49.046875 79.328125 -48.046875 C 78.179688 -47.046875 77.035156 -46.59375 75.890625 -46.6875 C 72.554688 -46.875 69.191406 -47.109375 65.796875 -47.390625 C 62.410156 -47.679688 59.046875 -47.972656 55.703125 -48.265625 C 59.617188 -42.441406 63.054688 -36.519531 66.015625 -30.5 C 67.921875 -26.394531 69.828125 -22.125 71.734375 -17.6875 C 73.648438 -13.25 74.320312 -8.691406 73.75 -4.015625 C 73.5625 -2.484375 72.796875 -1.5 71.453125 -1.0625 C 70.117188 -0.632812 68.832031 -0.660156 67.59375 -1.140625 C 66.925781 -1.046875 66.28125 -1.019531 65.65625 -1.0625 C 65.039062 -1.113281 64.394531 -1.285156 63.71875 -1.578125 C 63.53125 -1.578125 63.4375 -1.625 63.4375 -1.71875 C 62.863281 -1.144531 62.242188 -1 61.578125 -1.28125 C 60.335938 -4.625 59 -7.988281 57.5625 -11.375 C 56.132812 -14.769531 54.703125 -18.09375 53.265625 -21.34375 C 52.796875 -22.582031 52.082031 -24.320312 51.125 -26.5625 C 50.164062 -28.800781 49.160156 -31.140625 48.109375 -33.578125 C 47.066406 -36.015625 46.066406 -38.09375 45.109375 -39.8125 C 44.347656 -41.53125 43.582031 -43.007812 42.8125 -44.25 L 42.8125 -44.390625 C 41.957031 -45.628906 41.148438 -46.96875 40.390625 -48.40625 C 38.566406 -48.5 36.703125 -48.59375 34.796875 -48.6875 C 32.890625 -48.78125 30.976562 -48.875 29.0625 -48.96875 C 29.445312 -45.726562 29.78125 -42.484375 30.0625 -39.234375 C 30.351562 -35.992188 30.546875 -32.703125 30.640625 -29.359375 C 30.835938 -25.828125 31.050781 -22.269531 31.28125 -18.6875 C 31.519531 -15.101562 31.546875 -11.546875 31.359375 -8.015625 C 31.453125 -7.640625 31.5 -7.234375 31.5 -6.796875 C 31.5 -6.367188 31.5 -5.960938 31.5 -5.578125 C 30.550781 -3.765625 29.457031 -2.332031 28.21875 -1.28125 C 27.257812 -0.519531 26.160156 -0.140625 24.921875 -0.140625 C 23.679688 -0.140625 22.628906 -0.617188 21.765625 -1.578125 C 21.285156 -2.335938 21 -3.097656 20.90625 -3.859375 C 20.332031 -3.765625 19.757812 -3.929688 19.1875 -4.359375 C 18.613281 -4.796875 18.328125 -5.394531 18.328125 -6.15625 C 17.941406 -7.6875 17.773438 -9.285156 17.828125 -10.953125 C 17.878906 -12.628906 17.804688 -14.226562 17.609375 -15.75 L 16.328125 -25.203125 C 15.753906 -28.546875 15.179688 -31.910156 14.609375 -35.296875 C 14.035156 -38.691406 13.460938 -42.054688 12.890625 -45.390625 L 12.03125 -50.40625 C 11.9375 -50.40625 11.816406 -50.40625 11.671875 -50.40625 C 11.523438 -50.40625 11.359375 -50.40625 11.171875 -50.40625 C 11.171875 -50.976562 10.882812 -51.3125 10.3125 -51.40625 C 9.550781 -51.601562 8.765625 -51.84375 7.953125 -52.125 C 7.140625 -52.414062 6.347656 -52.703125 5.578125 -52.984375 L 8.875 -53.421875 C 7.445312 -53.992188 6.015625 -54.753906 4.578125 -55.703125 C 3.242188 -56.566406 2.503906 -57.785156 2.359375 -59.359375 C 2.210938 -60.929688 2.519531 -62.335938 3.28125 -63.578125 C 4.050781 -64.816406 5.15625 -65.4375 6.59375 -65.4375 C 7.0625 -65.539062 7.507812 -65.59375 7.9375 -65.59375 C 8.375 -65.59375 8.785156 -65.59375 9.171875 -65.59375 C 8.691406 -68.070312 8.1875 -70.550781 7.65625 -73.03125 C 7.132812 -75.507812 6.585938 -77.945312 6.015625 -80.34375 C 7.253906 -81.289062 8.253906 -82.335938 9.015625 -83.484375 C 7.679688 -84.628906 6.703125 -86.109375 6.078125 -87.921875 C 5.460938 -89.734375 5.535156 -91.453125 6.296875 -93.078125 C 7.253906 -94.890625 8.6875 -95.988281 10.59375 -96.375 C 12.507812 -96.757812 14.5625 -96.804688 16.75 -96.515625 C 18.945312 -96.234375 20.8125 -95.945312 22.34375 -95.65625 C 22.820312 -95.65625 23.25 -95.46875 23.625 -95.09375 C 24.101562 -94.894531 24.601562 -94.703125 25.125 -94.515625 C 25.65625 -94.328125 26.160156 -94.132812 26.640625 -93.9375 C 26.734375 -93.9375 26.800781 -93.910156 26.84375 -93.859375 C 26.894531 -93.816406 26.96875 -93.796875 27.0625 -93.796875 C 34.988281 -91.316406 42.554688 -87.851562 49.765625 -83.40625 C 56.972656 -78.96875 64.0625 -74.363281 71.03125 -69.59375 C 71.976562 -68.832031 72.644531 -67.785156 73.03125 -66.453125 C 74.082031 -65.773438 75.082031 -65.054688 76.03125 -64.296875 C 76.988281 -63.535156 77.945312 -62.769531 78.90625 -62 C 81.195312 -60.28125 82.101562 -57.800781 81.625 -54.5625 Z M 23.484375 -76.46875 C 23.578125 -76.375 23.625 -76.226562 23.625 -76.03125 C 23.625 -75.84375 23.671875 -75.65625 23.765625 -75.46875 C 24.148438 -75.851562 24.601562 -76.019531 25.125 -75.96875 C 25.65625 -75.914062 25.96875 -75.554688 26.0625 -74.890625 C 26.445312 -73.367188 26.804688 -71.867188 27.140625 -70.390625 C 27.472656 -68.910156 27.78125 -67.40625 28.0625 -65.875 C 28.445312 -65.78125 28.828125 -65.734375 29.203125 -65.734375 C 29.585938 -65.734375 29.972656 -65.6875 30.359375 -65.59375 C 30.546875 -66.445312 30.972656 -67.160156 31.640625 -67.734375 C 33.078125 -68.691406 34.535156 -68.976562 36.015625 -68.59375 C 37.492188 -68.207031 38.925781 -67.5625 40.3125 -66.65625 C 41.695312 -65.75 42.914062 -64.820312 43.96875 -63.875 L 57.859375 -62.15625 C 52.316406 -65.96875 46.679688 -69.328125 40.953125 -72.234375 C 35.222656 -75.148438 29.257812 -77.328125 23.0625 -78.765625 Z M 33.65625 -12.03125 C 33.363281 -17.945312 33.050781 -23.890625 32.71875 -29.859375 C 32.382812 -35.828125 31.789062 -41.722656 30.9375 -47.546875 L 32.078125 -47.546875 C 32.835938 -43.441406 33.410156 -39.238281 33.796875 -34.9375 C 34.179688 -30.644531 34.5625 -26.347656 34.9375 -22.046875 C 35.132812 -19.472656 35.039062 -17.585938 34.65625 -16.390625 C 34.269531 -15.203125 33.9375 -13.75 33.65625 -12.03125 Z M 33.65625 -12.03125 "/></g></g></g><g fill="#100a09" fill-opacity="1"><g transform="translate(178.936099, 210.825243)"><g><path d="M 2 -82.625 C 1.71875 -83.582031 1.8125 -84.535156 2.28125 -85.484375 C 2.757812 -86.441406 3.238281 -87.253906 3.71875 -87.921875 C 4.675781 -89.359375 5.867188 -90.550781 7.296875 -91.5 C 7.679688 -91.882812 7.96875 -92.125 8.15625 -92.21875 C 10.070312 -93.5625 12.101562 -94.566406 14.25 -95.234375 C 16.394531 -95.898438 18.566406 -95.945312 20.765625 -95.375 C 22.671875 -94.894531 24.335938 -94.101562 25.765625 -93 C 27.203125 -91.90625 28.253906 -90.40625 28.921875 -88.5 C 29.210938 -87.738281 29.164062 -87.019531 28.78125 -86.34375 C 28.40625 -85.675781 27.929688 -85.109375 27.359375 -84.640625 C 24.960938 -82.921875 22.429688 -81.773438 19.765625 -81.203125 C 18.898438 -80.242188 17.75 -79.546875 16.3125 -79.109375 C 14.882812 -78.679688 13.503906 -78.46875 12.171875 -78.46875 C 11.023438 -78.46875 9.898438 -78.5625 8.796875 -78.75 C 7.703125 -78.945312 6.628906 -79.238281 5.578125 -79.625 C 4.910156 -79.8125 4.195312 -80.191406 3.4375 -80.765625 C 2.675781 -81.335938 2.195312 -81.957031 2 -82.625 Z M 11.59375 -79.1875 C 13.695312 -79.1875 15.082031 -79.398438 15.75 -79.828125 C 16.414062 -80.265625 16.703125 -80.484375 16.609375 -80.484375 C 15.753906 -80.285156 14.800781 -80.140625 13.75 -80.046875 C 12.695312 -79.953125 11.359375 -80.050781 9.734375 -80.34375 C 7.640625 -80.8125 6.234375 -81.757812 5.515625 -83.1875 C 4.796875 -84.625 4.769531 -86.15625 5.4375 -87.78125 C 4.769531 -87.019531 4.148438 -86.113281 3.578125 -85.0625 C 3.296875 -84.394531 3.15625 -83.796875 3.15625 -83.265625 C 3.15625 -82.742188 3.441406 -82.242188 4.015625 -81.765625 C 4.960938 -81.003906 5.867188 -80.476562 6.734375 -80.1875 C 8.160156 -79.71875 9.78125 -79.382812 11.59375 -79.1875 Z M 26.5 -7.59375 C 25.820312 -6.445312 24.816406 -5.632812 23.484375 -5.15625 C 23.578125 -4.675781 23.53125 -4.171875 23.34375 -3.640625 C 23.15625 -3.117188 22.722656 -2.71875 22.046875 -2.4375 C 20.328125 -1.570312 18.488281 -1.332031 16.53125 -1.71875 C 14.582031 -2.101562 12.9375 -2.960938 11.59375 -4.296875 L 11.3125 -4.71875 C 10.644531 -5.007812 9.929688 -5.441406 9.171875 -6.015625 C 7.640625 -7.441406 6.707031 -9.15625 6.375 -11.15625 C 6.039062 -13.164062 5.726562 -15.175781 5.4375 -17.1875 C 4.769531 -22.53125 4.269531 -27.847656 3.9375 -33.140625 C 3.601562 -38.441406 3.484375 -43.769531 3.578125 -49.125 C 3.578125 -51.695312 3.578125 -54.296875 3.578125 -56.921875 C 3.578125 -59.546875 3.722656 -62.148438 4.015625 -64.734375 C 4.203125 -66.066406 4.535156 -67.375 5.015625 -68.65625 C 5.492188 -69.945312 6.160156 -71.023438 7.015625 -71.890625 C 7.203125 -72.171875 7.390625 -72.429688 7.578125 -72.671875 C 7.773438 -72.910156 7.96875 -73.125 8.15625 -73.3125 C 9.207031 -73.988281 10.566406 -74.828125 12.234375 -75.828125 C 13.910156 -76.828125 15.5625 -77.398438 17.1875 -77.546875 C 18.8125 -77.691406 20.003906 -76.804688 20.765625 -74.890625 C 21.242188 -74.984375 21.71875 -74.882812 22.1875 -74.59375 C 22.664062 -74.3125 22.957031 -73.835938 23.0625 -73.171875 C 23.0625 -70.503906 23.007812 -67.878906 22.90625 -65.296875 C 22.8125 -62.722656 22.765625 -60.097656 22.765625 -57.421875 C 22.765625 -54.847656 22.8125 -52.25 22.90625 -49.625 C 23.007812 -47 23.109375 -44.347656 23.203125 -41.671875 C 23.203125 -41.191406 23.222656 -40.640625 23.265625 -40.015625 C 23.316406 -39.398438 23.390625 -38.757812 23.484375 -38.09375 C 23.578125 -38.1875 23.695312 -37.800781 23.84375 -36.9375 C 23.988281 -36.082031 24.109375 -35.25 24.203125 -34.4375 C 24.296875 -33.625 24.390625 -33.21875 24.484375 -33.21875 C 24.390625 -36.65625 24.316406 -40.472656 24.265625 -44.671875 C 24.222656 -48.878906 24.222656 -53.082031 24.265625 -57.28125 C 24.316406 -61.476562 24.4375 -65.25 24.625 -68.59375 C 24.625 -68.78125 24.789062 -68.898438 25.125 -68.953125 C 25.46875 -69.003906 25.640625 -68.976562 25.640625 -68.875 C 25.347656 -58.664062 25.488281 -48.476562 26.0625 -38.3125 C 26.632812 -28.144531 27.585938 -17.953125 28.921875 -7.734375 C 29.015625 -7.066406 28.679688 -6.707031 27.921875 -6.65625 C 27.160156 -6.613281 26.6875 -6.925781 26.5 -7.59375 Z M 10.59375 -66.015625 C 9.539062 -62.765625 8.941406 -59.347656 8.796875 -55.765625 C 8.660156 -52.191406 8.5 -48.734375 8.3125 -45.390625 L 8.3125 -43.96875 C 8.3125 -43.863281 8.3125 -43.8125 8.3125 -43.8125 C 8.3125 -43.8125 8.3125 -43.765625 8.3125 -43.671875 C 8.5 -41.953125 8.6875 -40.234375 8.875 -38.515625 C 9.070312 -36.796875 9.265625 -35.078125 9.453125 -33.359375 L 9.875 -33.359375 C 9.875 -36.609375 9.847656 -39.832031 9.796875 -43.03125 C 9.753906 -46.226562 9.78125 -49.453125 9.875 -52.703125 C 9.875 -55.179688 9.992188 -57.6875 10.234375 -60.21875 C 10.472656 -62.75 10.976562 -65.160156 11.75 -67.453125 L 11.59375 -67.453125 C 10.925781 -66.972656 10.59375 -66.492188 10.59375 -66.015625 Z M 10.59375 -66.015625 "/></g></g></g><g fill="#100a09" fill-opacity="1"><g transform="translate(202.705468, 210.825243)"><g><path d="M 62.15625 0.421875 C 61.289062 0.992188 60.332031 0.992188 59.28125 0.421875 C 57.375 -0.429688 56.085938 -1.835938 55.421875 -3.796875 C 54.753906 -5.753906 54.226562 -7.640625 53.84375 -9.453125 L 52.984375 -14.3125 L 28.0625 -58.859375 C 27.6875 -59.335938 27.304688 -59.863281 26.921875 -60.4375 C 26.535156 -61.007812 26.15625 -61.53125 25.78125 -62 C 25.875 -57.132812 25.894531 -52.265625 25.84375 -47.390625 C 25.800781 -42.523438 25.78125 -37.660156 25.78125 -32.796875 C 25.96875 -29.929688 26.082031 -27.066406 26.125 -24.203125 C 26.175781 -21.335938 26.25 -18.472656 26.34375 -15.609375 C 26.445312 -14.179688 26.546875 -12.4375 26.640625 -10.375 C 26.734375 -8.320312 26.515625 -6.484375 25.984375 -4.859375 C 25.460938 -3.242188 24.203125 -2.289062 22.203125 -2 C 21.335938 -0.570312 20.164062 0.398438 18.6875 0.921875 C 17.207031 1.453125 15.65625 1.476562 14.03125 1 C 12.507812 0.613281 11.175781 -0.289062 10.03125 -1.71875 C 9.644531 -7.726562 9.332031 -13.738281 9.09375 -19.75 C 8.851562 -25.769531 8.640625 -31.789062 8.453125 -37.8125 C 8.253906 -42.675781 8.109375 -47.566406 8.015625 -52.484375 C 7.921875 -57.398438 7.78125 -62.289062 7.59375 -67.15625 C 7.5 -70.3125 7.425781 -73.460938 7.375 -76.609375 C 7.320312 -79.765625 7.394531 -82.867188 7.59375 -85.921875 C 8.539062 -86.679688 9.445312 -87.109375 10.3125 -87.203125 C 10.3125 -88.347656 10.691406 -89.445312 11.453125 -90.5 C 12.597656 -91.9375 13.882812 -92.628906 15.3125 -92.578125 C 16.75 -92.535156 18.226562 -92.007812 19.75 -91 C 21.28125 -90 22.664062 -88.851562 23.90625 -87.5625 C 25.15625 -86.28125 26.113281 -85.207031 26.78125 -84.34375 C 29.257812 -81.101562 31.523438 -77.785156 33.578125 -74.390625 C 35.628906 -71.003906 37.613281 -67.546875 39.53125 -64.015625 C 41.144531 -61.242188 42.71875 -58.425781 44.25 -55.5625 C 45.78125 -52.695312 47.257812 -49.785156 48.6875 -46.828125 C 48.875 -46.441406 48.96875 -45.960938 48.96875 -45.390625 L 51.265625 -40.953125 C 50.878906 -44.578125 50.351562 -48.25 49.6875 -51.96875 C 49.019531 -55.695312 48.351562 -59.378906 47.6875 -63.015625 C 47.207031 -65.585938 46.726562 -68.160156 46.25 -70.734375 C 45.769531 -73.316406 45.148438 -75.894531 44.390625 -78.46875 C 44.003906 -79.8125 43.644531 -81.175781 43.3125 -82.5625 C 42.976562 -83.945312 43.195312 -85.351562 43.96875 -86.78125 C 44.632812 -87.925781 45.441406 -88.785156 46.390625 -89.359375 C 46.390625 -89.453125 46.414062 -89.5 46.46875 -89.5 C 46.519531 -89.5 46.546875 -89.546875 46.546875 -89.640625 C 47.398438 -91.265625 48.707031 -92.078125 50.46875 -92.078125 C 52.238281 -92.078125 53.742188 -91.648438 54.984375 -90.796875 C 55.273438 -90.691406 55.613281 -90.453125 56 -90.078125 C 56.28125 -88.734375 56.609375 -87.367188 56.984375 -85.984375 C 57.367188 -84.609375 57.753906 -83.25 58.140625 -81.90625 C 59.285156 -77.800781 60.238281 -73.578125 61 -69.234375 C 61.769531 -64.890625 62.488281 -60.570312 63.15625 -56.28125 C 64.582031 -47.59375 65.722656 -38.804688 66.578125 -29.921875 C 67.441406 -21.046875 68.160156 -12.21875 68.734375 -3.4375 C 67.972656 -2.382812 67.019531 -1.476562 65.875 -0.71875 C 64.726562 0.0390625 63.488281 0.421875 62.15625 0.421875 Z M 70.171875 -4.875 C 69.984375 -4.875 69.789062 -4.726562 69.59375 -4.4375 C 68.644531 -18.09375 67.332031 -31.722656 65.65625 -45.328125 C 63.988281 -58.929688 61.675781 -72.367188 58.71875 -85.640625 C 58.519531 -86.210938 58.660156 -86.734375 59.140625 -87.203125 C 59.523438 -87.679688 60.050781 -87.894531 60.71875 -87.84375 C 61.382812 -87.800781 61.765625 -87.398438 61.859375 -86.640625 C 64.441406 -74.222656 66.472656 -61.691406 67.953125 -49.046875 C 69.429688 -36.398438 70.125 -23.726562 70.03125 -11.03125 C 70.125 -10.550781 70.191406 -9.664062 70.234375 -8.375 C 70.285156 -7.082031 70.265625 -5.914062 70.171875 -4.875 Z M 7.453125 -15.328125 C 7.066406 -20.378906 6.773438 -25.648438 6.578125 -31.140625 C 6.390625 -36.628906 6.203125 -41.953125 6.015625 -47.109375 C 5.828125 -52.171875 5.679688 -57.28125 5.578125 -62.4375 C 5.484375 -67.59375 5.390625 -72.75 5.296875 -77.90625 C 5.203125 -79.144531 5.25 -80.40625 5.4375 -81.6875 C 5.632812 -82.976562 5.96875 -84.195312 6.4375 -85.34375 C 6.34375 -83.050781 6.316406 -80.757812 6.359375 -78.46875 C 6.410156 -76.175781 6.488281 -73.882812 6.59375 -71.59375 C 6.6875 -66.632812 6.800781 -61.671875 6.9375 -56.703125 C 7.082031 -51.742188 7.203125 -46.734375 7.296875 -41.671875 L 8.59375 -9.453125 C 8.59375 -9.453125 8.472656 -9.664062 8.234375 -10.09375 C 7.992188 -10.519531 7.734375 -12.265625 7.453125 -15.328125 Z M 23.484375 -22.34375 L 23.0625 -21.90625 C 23.0625 -21.90625 23.035156 -21.90625 22.984375 -21.90625 C 22.929688 -21.90625 22.859375 -21.859375 22.765625 -21.765625 L 22.625 -13.171875 C 22.625 -12.023438 22.835938 -10.664062 23.265625 -9.09375 C 23.703125 -7.519531 23.679688 -5.828125 23.203125 -4.015625 C 24.148438 -5.628906 24.53125 -7.25 24.34375 -8.875 C 24.25 -10.21875 24.175781 -11.601562 24.125 -13.03125 C 24.082031 -14.457031 23.960938 -15.890625 23.765625 -17.328125 C 23.765625 -18.179688 23.738281 -19.015625 23.6875 -19.828125 C 23.644531 -20.640625 23.578125 -21.476562 23.484375 -22.34375 Z M 23.484375 -22.34375 "/></g></g></g><g fill="#100a09" fill-opacity="1"><g transform="translate(269.576691, 210.825243)"><g><path d="M 86.921875 -7.875 C 85.585938 -6.820312 84.300781 -6.15625 83.0625 -5.875 C 83.25 -5.207031 83.175781 -4.5625 82.84375 -3.9375 C 82.507812 -3.3125 81.910156 -3 81.046875 -3 C 69.691406 -2.625 58.304688 -1.984375 46.890625 -1.078125 C 35.484375 -0.171875 24.101562 0.613281 12.75 1.28125 C 12.550781 1.382812 12.425781 1.316406 12.375 1.078125 C 12.332031 0.835938 12.410156 0.671875 12.609375 0.578125 C 15.847656 -0.378906 19.113281 -1.238281 22.40625 -2 C 25.707031 -2.769531 29.023438 -3.441406 32.359375 -4.015625 C 23.765625 -2.960938 15.363281 -1.671875 7.15625 -0.140625 C 5.820312 0.046875 4.535156 -0.0703125 3.296875 -0.5 C 2.054688 -0.925781 1.050781 -1.757812 0.28125 -3 C -0.1875 -3.863281 -0.445312 -4.867188 -0.5 -6.015625 C -0.550781 -7.160156 -0.289062 -8.160156 0.28125 -9.015625 C 0.664062 -9.492188 1.023438 -9.945312 1.359375 -10.375 C 1.691406 -10.8125 2.003906 -11.21875 2.296875 -11.59375 C 1.617188 -12.164062 1.09375 -12.882812 0.71875 -13.75 C 0.238281 -15.5625 0.664062 -17.445312 2 -19.40625 C 3.34375 -21.363281 4.488281 -23.054688 5.4375 -24.484375 C 7.820312 -28.210938 10.300781 -31.910156 12.875 -35.578125 C 15.457031 -39.253906 18.085938 -42.859375 20.765625 -46.390625 C 22.484375 -48.585938 24.296875 -50.832031 26.203125 -53.125 C 29.066406 -56.851562 32.023438 -60.503906 35.078125 -64.078125 C 38.140625 -67.660156 41.289062 -71.171875 44.53125 -74.609375 L 28.0625 -70.75 C 26.539062 -70.363281 24.988281 -70.003906 23.40625 -69.671875 C 21.832031 -69.335938 20.234375 -68.976562 18.609375 -68.59375 C 17.660156 -68.40625 16.753906 -68.210938 15.890625 -68.015625 C 15.035156 -67.828125 14.128906 -67.878906 13.171875 -68.171875 C 12.503906 -68.359375 11.976562 -68.929688 11.59375 -69.890625 C 9.207031 -70.648438 7.703125 -72.222656 7.078125 -74.609375 C 6.460938 -76.992188 6.679688 -79.140625 7.734375 -81.046875 C 7.734375 -83.054688 8.113281 -84.875 8.875 -86.5 C 9.257812 -87.257812 9.925781 -87.804688 10.875 -88.140625 C 11.832031 -88.472656 12.742188 -88.546875 13.609375 -88.359375 C 13.984375 -88.265625 14.429688 -88.238281 14.953125 -88.28125 C 15.484375 -88.332031 15.941406 -88.40625 16.328125 -88.5 C 16.992188 -88.976562 17.660156 -89.21875 18.328125 -89.21875 C 26.347656 -89.789062 34.34375 -90.503906 42.3125 -91.359375 C 50.289062 -92.222656 58.191406 -93.703125 66.015625 -95.796875 C 67.734375 -96.273438 69.257812 -96.085938 70.59375 -95.234375 C 70.882812 -95.328125 71.125 -95.328125 71.3125 -95.234375 C 72.070312 -95.140625 72.832031 -94.972656 73.59375 -94.734375 C 74.363281 -94.492188 74.988281 -94.039062 75.46875 -93.375 C 76.894531 -93.375 78.234375 -93.226562 79.484375 -92.9375 C 80.910156 -92.550781 81.882812 -91.523438 82.40625 -89.859375 C 82.9375 -88.191406 82.582031 -86.832031 81.34375 -85.78125 C 78 -82.914062 74.820312 -79.8125 71.8125 -76.46875 C 68.8125 -73.125 65.828125 -69.832031 62.859375 -66.59375 C 59.898438 -63.34375 56.914062 -60.046875 53.90625 -56.703125 C 50.90625 -53.367188 47.972656 -50.03125 45.109375 -46.6875 C 42.148438 -43.34375 39.238281 -39.953125 36.375 -36.515625 C 33.507812 -33.078125 30.644531 -29.640625 27.78125 -26.203125 C 26.539062 -24.679688 25.273438 -23.15625 23.984375 -21.625 C 22.691406 -20.09375 21.378906 -18.566406 20.046875 -17.046875 C 20.335938 -17.046875 20.625 -17.066406 20.90625 -17.109375 C 21.195312 -17.160156 21.484375 -17.234375 21.765625 -17.328125 L 22.625 -18.328125 C 23.675781 -19.660156 24.726562 -20.992188 25.78125 -22.328125 C 26.832031 -23.671875 27.878906 -24.960938 28.921875 -26.203125 C 31.023438 -28.785156 33.148438 -31.335938 35.296875 -33.859375 C 37.441406 -36.390625 39.613281 -38.898438 41.8125 -41.390625 C 46.300781 -46.441406 50.835938 -51.351562 55.421875 -56.125 C 60.003906 -60.90625 64.726562 -65.585938 69.59375 -70.171875 C 70.363281 -70.835938 71.101562 -70.8125 71.8125 -70.09375 C 72.53125 -69.382812 72.507812 -68.691406 71.75 -68.015625 C 67.070312 -63.335938 62.390625 -58.613281 57.703125 -53.84375 C 53.023438 -49.070312 48.445312 -44.203125 43.96875 -39.234375 C 41.675781 -36.847656 39.429688 -34.414062 37.234375 -31.9375 C 35.035156 -29.457031 32.835938 -26.925781 30.640625 -24.34375 L 25.203125 -17.90625 C 28.828125 -18.476562 32.5 -18.90625 36.21875 -19.1875 C 39.945312 -19.476562 43.625 -19.765625 47.25 -20.046875 C 50.019531 -20.234375 52.765625 -20.421875 55.484375 -20.609375 C 58.210938 -20.804688 60.957031 -20.953125 63.71875 -21.046875 C 66.488281 -21.242188 69.234375 -21.410156 71.953125 -21.546875 C 74.679688 -21.691406 77.378906 -21.671875 80.046875 -21.484375 C 83.296875 -21.484375 85.539062 -20.050781 86.78125 -17.1875 C 88.207031 -16.039062 88.945312 -14.535156 89 -12.671875 C 89.050781 -10.804688 88.359375 -9.207031 86.921875 -7.875 Z M 20.328125 -74.171875 C 19.753906 -72.453125 18.609375 -71.164062 16.890625 -70.3125 C 16.890625 -70.3125 16.890625 -70.285156 16.890625 -70.234375 C 16.890625 -70.191406 16.84375 -70.171875 16.75 -70.171875 C 17.039062 -70.171875 17.472656 -70.265625 18.046875 -70.453125 L 32.9375 -75.1875 C 34.9375 -75.757812 36.914062 -76.351562 38.875 -76.96875 C 40.832031 -77.59375 42.765625 -78.191406 44.671875 -78.765625 C 40.566406 -77.992188 36.484375 -77.226562 32.421875 -76.46875 C 28.367188 -75.707031 24.335938 -74.941406 20.328125 -74.171875 Z M 20.328125 -74.171875 "/></g></g></g><path stroke-linecap="butt" transform="matrix(1.075859, 0, 0, 1.075859, -30.751099, 57.554382)" fill="none" stroke-linejoin="miter" d="M 111.263835 86.726024 C 110.091081 88.871837 108.468105 90.454874 106.387645 91.471504 C 104.307186 92.491764 102.023401 93.087218 99.529029 93.261497 C 97.038287 93.432146 94.52576 93.388576 91.991449 93.130788 C 89.475291 92.869369 87.202399 92.557119 85.165509 92.186775 C 84.537378 92.012496 83.931031 91.885417 83.346469 91.798277 C 82.780061 91.711138 82.184607 91.623998 81.556475 91.536859 C 81.730755 92.339269 81.905034 93.14168 82.079313 93.944091 C 82.271747 94.721087 82.413348 95.469035 82.500488 96.184307 C 83.12862 99.477459 83.724074 102.770612 84.286851 106.063765 C 84.871413 109.335133 85.339788 112.610131 85.684716 115.881499 C 85.858996 117.48269 85.902565 119.109297 85.815426 120.754058 C 85.728286 122.40245 85.466867 123.970963 85.0348 125.466861 C 84.406668 127.699814 83.074158 129.747596 81.037268 131.610206 C 80.321997 132.216553 79.35983 132.713975 78.143505 133.106104 C 76.952597 133.516386 75.968645 133.236813 75.188019 132.260123 C 74.472748 131.283433 74.051573 130.201449 73.920863 129.01054 C 73.790154 127.819631 73.626767 126.635984 73.430703 125.466861 C 73.347194 124.66445 73.238269 123.854777 73.10756 123.030581 C 72.97685 122.184601 72.867926 121.316835 72.780786 120.430915 C 72.152654 118.285101 71.622555 116.01947 71.190487 113.637653 C 71.277627 114.352924 71.364767 115.046411 71.448275 115.718112 C 71.535415 116.368029 71.622555 117.050623 71.709694 117.765894 C 71.883974 118.913233 72.036468 120.060572 72.163547 121.211541 C 72.316041 122.35888 72.479428 123.517111 72.653707 124.686235 C 72.740847 125.575785 72.846141 126.487121 72.97685 127.416611 C 73.10756 128.349731 73.042205 129.217497 72.780786 130.016277 C 72.780786 130.103416 72.740847 130.103416 72.653707 130.016277 C 72.109085 129.217497 71.796834 128.262591 71.709694 127.158822 C 71.622555 126.029638 71.491845 125.023901 71.321197 124.13435 L 70.115765 117.21401 C 69.770837 114.915701 69.415017 112.639178 69.044673 110.38807 C 68.699746 108.111547 68.340295 105.816869 67.973582 103.496776 C 67.537884 100.744615 67.116709 98.003347 66.706426 95.276602 C 66.314298 92.524441 65.904015 89.772281 65.468317 87.02012 C 61.202105 85.331789 57.117433 83.465548 53.217934 81.428659 C 53.130794 81.323365 53.130794 81.225333 53.217934 81.138193 C 53.305074 81.051054 53.392213 81.051054 53.475722 81.138193 C 55.429103 82.024113 57.400637 82.891879 59.393957 83.73786 C 61.387276 84.58384 63.358811 85.360836 65.308561 86.076107 C 65.221421 85.622255 65.134281 85.222865 65.047142 84.874306 C 64.960002 84.529378 64.872863 84.169927 64.785723 83.803214 C 63.271671 83.196868 61.775774 82.557843 60.301662 81.886142 C 58.849334 81.21444 57.378852 80.564524 55.882955 79.936392 C 54.452412 79.242906 53.551969 78.048366 53.185257 76.360036 C 52.836698 74.671705 53.02187 73.208485 53.737141 71.974006 C 54.365273 70.997316 55.341963 70.194905 56.663581 69.566774 C 58.006984 68.938642 59.252355 68.851502 60.399694 69.308985 L 61.18032 69.697483 C 60.399694 66.771043 59.564605 63.848234 58.678686 60.921794 C 57.789135 57.998985 56.856014 55.116114 55.882955 52.276814 C 55.512612 51.10769 55.643321 50.058384 56.271453 49.125263 C 56.899584 48.192143 57.701995 47.553119 58.678686 47.208191 C 58.591546 46.580059 58.70047 46.04996 59.001828 45.614262 C 59.306817 45.160409 59.640853 44.757388 60.011196 44.41246 C 62.218734 42.894778 64.636859 42.386464 67.258311 42.883886 C 69.879762 43.363154 72.250686 44.129257 74.374716 45.193087 C 76.585884 46.36221 78.731698 47.585796 80.808527 48.863844 C 82.910771 50.141893 84.980337 51.452618 87.017227 52.796021 C 91.19993 55.548182 95.262816 58.507299 99.205886 61.669743 C 103.148955 64.810401 107.02667 68.059984 110.839029 71.418491 C 111.902859 72.308042 112.345819 73.339194 112.17154 74.508318 C 112.973951 75.829936 113.50405 77.151554 113.765469 78.473172 C 114.045042 80.335782 113.939749 81.940604 113.438696 83.284007 C 112.963058 84.605625 112.236895 85.752964 111.263835 86.726024 Z M 95.273709 72.493214 C 93.323959 71.345875 91.392364 70.21669 89.486184 69.112921 C 87.580004 67.987367 85.652039 66.89086 83.702289 65.830661 C 82.271747 65.137175 80.797634 64.411011 79.283583 63.65217 C 77.787685 62.893328 76.280895 62.199842 74.763213 61.57171 C 75.478484 64.062452 76.139293 66.600395 76.749271 69.178276 C 77.377403 71.734372 77.961965 74.301361 78.502957 76.879243 C 81.425766 77.855933 84.265066 78.658344 87.017227 79.286476 C 89.25018 79.718543 91.490396 80.052578 93.745134 80.292212 C 95.999873 80.510062 98.240088 80.531847 100.473041 80.357567 C 100.905109 80.357567 101.362592 80.335782 101.838229 80.292212 C 102.335652 80.248643 102.767719 80.183288 103.138063 80.096148 L 104.176477 79.805683 C 104.005828 79.457124 103.831549 79.199336 103.65727 79.025057 C 102.767719 77.594514 101.522348 76.370928 99.921157 75.354299 C 98.33812 74.334039 96.78776 73.379133 95.273709 72.493214 Z M 88.349737 90.335057 C 87.202399 90.160778 86.000598 89.968345 84.740703 89.750496 C 83.506225 89.510862 82.271747 89.263966 81.037268 89.002547 C 81.124408 89.176826 81.167978 89.358367 81.167978 89.554431 C 81.167978 89.728711 81.211547 89.90299 81.298687 90.073639 C 81.556475 90.160778 81.796109 90.226133 82.013958 90.269703 C 82.249962 90.313273 82.500488 90.335057 82.758276 90.335057 C 85.339788 90.679985 87.983025 91.017651 90.691615 91.340794 C 93.396576 91.645783 96.03255 91.667568 98.588647 91.406149 L 103.65727 90.596476 C 103.65727 90.509337 103.192525 90.509337 102.259404 90.596476 C 101.329915 90.679985 100.861539 90.679985 100.861539 90.596476 C 98.654001 90.854265 96.43194 90.941404 94.198987 90.854265 C 91.991449 90.767125 90.041699 90.596476 88.349737 90.335057 Z M 81.687185 113.768362 C 81.861464 115.9759 81.926819 118.241531 81.883249 120.561625 C 81.839679 122.856302 81.287795 125.023901 80.223965 127.06079 L 80.485384 127.481965 C 81.026376 127.202392 81.469336 126.886511 81.817894 126.541583 C 82.790954 124.504694 83.215759 122.380665 83.08505 120.169496 C 82.95434 117.936542 82.674767 115.718112 82.239069 113.506943 L 81.425766 109.378702 C 81.342257 109.465842 81.342257 109.781723 81.425766 110.322715 C 81.512905 110.841922 81.512905 111.103341 81.425766 111.103341 Z M 183.538915 81.268903 L 183.11411 84.061002 C 183.02697 85.320897 182.453301 86.413773 181.393102 87.343263 C 180.329272 88.276383 179.269072 88.697558 178.208873 88.614049 C 175.108154 88.43977 171.978388 88.221921 168.815945 87.964133 C 165.671656 87.680929 162.54189 87.408617 159.423017 87.150829 C 163.061097 92.568011 166.256218 98.068702 169.008378 103.660163 C 170.78748 107.472523 172.56295 111.448269 174.33842 115.587403 C 176.117522 119.704751 176.734761 123.927394 176.193769 128.262591 C 176.01949 129.693134 175.315111 130.611731 174.080632 131.025644 C 172.846154 131.414142 171.640722 131.381465 170.471598 130.927612 C 169.865252 131.014752 169.269797 131.036537 168.685236 130.992967 C 168.100674 130.949397 167.505219 130.796903 166.898873 130.539115 C 166.724593 130.539115 166.637454 130.495545 166.637454 130.408405 C 166.096462 130.927612 165.5119 131.058322 164.883768 130.796903 C 163.732799 127.699814 162.487428 124.580941 161.144025 121.436652 C 159.822407 118.274209 158.500789 115.188013 157.179171 112.174433 C 156.725318 111.005309 156.053617 109.378702 155.164066 107.298243 C 154.274515 105.221415 153.345026 103.053816 152.368336 100.799077 C 151.395276 98.526185 150.462156 96.587328 149.576236 94.982506 C 148.860965 93.399469 148.156586 92.023388 147.463099 90.854265 L 147.463099 90.723555 C 146.660688 89.576216 145.901847 88.341738 145.186576 87.02012 C 143.498245 86.911195 141.762714 86.813163 139.987243 86.726024 C 138.211773 86.642515 136.432672 86.555375 134.657201 86.468235 C 135.023914 89.478184 135.339795 92.502656 135.601214 95.53439 C 135.859002 98.54797 136.044174 101.601488 136.153098 104.698577 C 136.323747 107.99173 136.519811 111.306667 136.73766 114.64339 C 136.955509 117.958327 136.973664 121.262373 136.803015 124.559156 C 136.890155 124.904084 136.933725 125.281689 136.933725 125.695602 C 136.933725 126.0841 136.933725 126.454444 136.933725 126.799371 C 136.044174 128.491333 135.023914 129.823843 133.876575 130.796903 C 132.987024 131.512174 131.959503 131.871625 130.790379 131.871625 C 129.64304 131.871625 128.677242 131.425035 127.896616 130.539115 C 127.442764 129.823843 127.170453 129.108572 127.083313 128.393301 C 126.542321 128.502225 126.001329 128.360623 125.460337 127.968495 C 124.94113 127.558212 124.679711 126.995436 124.679711 126.280164 C 124.334783 124.849622 124.182289 123.364617 124.225859 121.82878 C 124.269428 120.267528 124.204074 118.771631 124.029794 117.341088 L 122.827993 108.56903 C 122.287001 105.468311 121.742378 102.349437 121.201386 99.208779 C 120.682179 96.042705 120.162972 92.912939 119.643765 89.81585 L 118.830462 85.135725 C 118.743322 85.135725 118.634397 85.135725 118.503688 85.135725 C 118.372979 85.135725 118.213222 85.135725 118.017158 85.135725 C 118.017158 84.616518 117.755739 84.311529 117.236532 84.224389 C 116.521261 84.028325 115.784205 83.803214 115.025364 83.541795 C 114.291938 83.284007 113.565774 83.011696 112.850503 82.728492 L 115.904022 82.339994 C 114.582404 81.820787 113.249893 81.116408 111.90649 80.226858 C 110.672012 79.424447 109.978525 78.298893 109.826031 76.846565 C 109.698952 75.372453 109.989418 74.061727 110.704689 72.914389 C 111.41996 71.745265 112.43659 71.160703 113.758208 71.160703 C 114.215691 71.073563 114.636866 71.029994 115.025364 71.029994 C 115.439277 71.029994 115.816882 71.029994 116.165441 71.029994 C 115.729742 68.731685 115.264998 66.437008 114.767575 64.138699 C 114.291938 61.822237 113.779993 59.545714 113.239001 57.316391 C 114.386339 56.42684 115.31946 55.45015 116.034731 54.389951 C 114.800253 53.329752 113.888917 51.953671 113.304355 50.26171 C 112.719794 48.573379 112.785148 46.979449 113.50042 45.483552 C 114.386339 43.795221 115.71885 42.774961 117.497951 42.430033 C 119.273422 42.063321 121.179601 42.019751 123.216491 42.299324 C 125.25338 42.560743 126.988912 42.818531 128.415823 43.07995 C 128.851522 43.07995 129.250912 43.254229 129.621255 43.599157 C 130.053323 43.773436 130.507175 43.958608 130.986443 44.151042 C 131.483865 44.325321 131.959503 44.4996 132.413355 44.673879 C 132.500495 44.673879 132.565849 44.695664 132.609419 44.739234 C 132.652989 44.779173 132.718344 44.800958 132.805483 44.800958 C 140.172415 47.121051 147.20168 50.348849 153.89691 54.487983 C 160.613925 58.605331 167.211123 62.871544 173.688504 67.293881 C 174.578055 68.009152 175.195294 68.982212 175.543852 70.21669 C 176.516912 70.844822 177.450032 71.516523 178.335952 72.231795 C 179.225503 72.947066 180.115053 73.651445 181.000973 74.344931 C 183.125002 75.949753 183.970983 78.255323 183.538915 81.268903 Z M 129.490546 60.921794 C 129.577686 61.008934 129.621255 61.139643 129.621255 61.313922 C 129.621255 61.484571 129.661194 61.65885 129.748334 61.833129 C 130.096893 61.484571 130.507175 61.335707 130.986443 61.379277 C 131.483865 61.419216 131.774331 61.756882 131.861471 62.385014 C 132.231814 63.793772 132.565849 65.191637 132.870838 66.57861 C 133.193981 67.943798 133.488077 69.341663 133.745866 70.768575 C 134.094424 70.855714 134.439352 70.899284 134.787911 70.899284 C 135.154623 70.899284 135.514074 70.942854 135.859002 71.029994 C 136.055066 70.227583 136.454456 69.566774 137.060803 69.047566 C 138.404206 68.158016 139.758502 67.889335 141.12369 68.234263 C 142.510662 68.582822 143.843173 69.178276 145.121221 70.024257 C 146.399269 70.866607 147.528454 71.734372 148.501513 72.623923 L 161.438121 74.214222 C 156.278727 70.663281 151.035825 67.540777 145.705783 64.853971 C 140.397526 62.14538 134.853265 60.119383 129.06574 58.77598 Z M 138.948829 120.819413 C 138.665625 115.315091 138.371529 109.792616 138.070171 104.244725 C 137.765182 98.696833 137.213298 93.217928 136.410887 87.800746 L 137.485609 87.800746 C 138.179095 91.613106 138.698303 95.523498 139.04323 99.531922 C 139.413574 103.518561 139.769394 107.5052 140.117953 111.491839 C 140.310386 113.899072 140.226877 115.652757 139.856534 116.756526 C 139.511606 117.863926 139.206617 119.218222 138.948829 120.819413 Z M 182.311699 55.203254 C 182.053911 54.313704 182.137419 53.424153 182.573118 52.538233 C 183.02697 51.648682 183.46993 50.889841 183.905628 50.26171 C 184.791548 48.940092 185.90984 47.836323 187.253243 46.946772 C 187.598171 46.580059 187.85959 46.351318 188.033869 46.264178 C 189.80934 45.0297 191.693735 44.096579 193.687054 43.468448 C 195.702159 42.840316 197.728156 42.796746 199.765045 43.341369 C 201.540515 43.795221 203.090875 44.532277 204.412493 45.548907 C 205.755896 46.569167 206.728956 47.967032 207.338933 49.742503 C 207.618506 50.435989 207.574936 51.096798 207.208224 51.72493 C 206.859665 52.353061 206.416705 52.883161 205.875713 53.318859 C 203.664544 54.92005 201.315405 55.994773 198.821032 56.535765 C 198.022252 57.421684 196.958422 58.060709 195.636804 58.452837 C 194.315186 58.841335 193.026245 59.037399 191.769982 59.037399 C 190.709783 59.037399 189.667738 58.950259 188.651108 58.77598 C 187.630848 58.605331 186.636004 58.343912 185.659314 57.998985 C 185.031182 57.80292 184.359481 57.443469 183.644209 56.924262 C 182.950723 56.38327 182.507763 55.809601 182.311699 55.203254 Z M 191.250775 58.387482 C 193.200524 58.387482 194.478573 58.191418 195.084919 57.80292 C 195.713051 57.392638 195.985363 57.185681 195.898223 57.185681 C 195.095812 57.359961 194.206261 57.487039 193.233202 57.574179 C 192.256512 57.661319 191.022033 57.574179 189.526136 57.316391 C 187.554601 56.880692 186.232983 56.005665 185.561282 54.684047 C 184.911365 53.340644 184.900473 51.910101 185.528604 50.392419 C 184.900473 51.10769 184.315911 51.953671 183.774919 52.926731 C 183.5135 53.554862 183.386421 54.117639 183.386421 54.618692 C 183.386421 55.09433 183.655102 55.548182 184.196094 55.98388 C 185.085644 56.699152 185.931625 57.185681 186.734036 57.443469 C 188.055654 57.900953 189.558813 58.213203 191.250775 58.387482 Z M 205.095087 124.947654 C 204.466955 126.007853 203.533835 126.766694 202.299357 127.224177 C 202.386496 127.656245 202.332034 128.120989 202.13597 128.618412 C 201.965321 129.09768 201.573193 129.464392 200.966846 129.725811 C 199.365655 130.528222 197.651908 130.753333 195.832868 130.408405 C 194.013828 130.038062 192.485253 129.239282 191.250775 128.001172 L 190.989356 127.612675 C 190.361224 127.351256 189.689523 126.951866 188.974251 126.410874 C 187.565494 125.089256 186.701359 123.495326 186.374585 121.632716 C 186.073227 119.748321 185.790023 117.874819 185.528604 116.008578 C 184.900473 111.048879 184.424835 106.107335 184.101692 101.191206 C 183.796704 96.249661 183.687779 91.300855 183.774919 86.337526 C 183.774919 83.933924 183.774919 81.515798 183.774919 79.090411 C 183.774919 76.64324 183.916521 74.225114 184.196094 71.843297 C 184.370373 70.587034 184.675362 69.363448 185.107429 68.168908 C 185.561282 66.978 186.189413 65.983155 186.991824 65.180744 C 187.166104 64.919325 187.340383 64.683322 187.511031 64.465473 C 187.685311 64.225839 187.85959 64.022513 188.033869 63.848234 C 189.028714 63.220102 190.295869 62.439476 191.835337 61.506356 C 193.396589 60.576866 194.921533 60.046767 196.41743 59.916057 C 197.935112 59.785348 199.049774 60.609543 199.765045 62.385014 C 200.197112 62.297874 200.632811 62.385014 201.064878 62.646433 C 201.51873 62.904221 201.791042 63.350812 201.878182 63.978943 C 201.878182 66.469685 201.834612 68.916857 201.747472 71.32409 C 201.660332 73.705907 201.616763 76.142187 201.616763 78.636559 C 201.616763 81.018376 201.660332 83.432871 201.747472 85.883674 C 201.834612 88.309061 201.932644 90.767125 202.041568 93.261497 C 202.041568 93.71535 202.063353 94.234557 202.103292 94.819119 C 202.146862 95.381896 202.212217 95.970088 202.299357 96.576435 C 202.386496 96.489295 202.495421 96.845116 202.62613 97.647527 C 202.753209 98.449938 202.862133 99.230564 202.949273 99.985774 C 203.036413 100.744615 203.123552 101.125851 203.210692 101.125851 C 203.123552 97.919838 203.058198 94.365266 203.014628 90.465767 C 202.971058 86.566267 202.971058 82.666768 203.014628 78.763638 C 203.058198 74.842353 203.178015 71.334982 203.374079 68.234263 C 203.374079 68.059984 203.522943 67.95469 203.827931 67.91112 C 204.129289 67.86755 204.281784 67.889335 204.281784 67.976475 C 204.023996 77.463805 204.151074 86.943873 204.673912 96.413048 C 205.214904 105.860439 206.100824 115.325984 207.338933 124.816944 C 207.422442 125.423291 207.110192 125.760957 206.39492 125.826312 C 205.701434 125.869882 205.269366 125.575785 205.095087 124.947654 Z M 190.306762 70.641496 C 189.333702 73.651445 188.778187 76.82478 188.651108 80.161503 C 188.520399 83.476441 188.367905 86.693346 188.193625 89.81585 L 188.193625 91.148361 C 188.193625 91.235501 188.193625 91.27907 188.193625 91.27907 C 188.193625 91.27907 188.193625 91.32264 188.193625 91.406149 C 188.367905 92.989186 188.542184 94.583116 188.716463 96.184307 C 188.887112 97.789129 189.061391 99.39032 189.23567 100.995142 L 189.656845 100.995142 C 189.656845 97.963408 189.63506 94.960721 189.591491 91.990711 C 189.547921 89.024332 189.569706 86.032537 189.656845 83.022588 C 189.656845 80.702495 189.76577 78.37514 189.983619 76.033262 C 190.197837 73.67323 190.666213 71.429384 191.381484 69.308985 L 191.250775 69.308985 C 190.622643 69.741053 190.306762 70.184013 190.306762 70.641496 Z M 260.341627 132.390832 C 259.539216 132.931824 258.649665 132.931824 257.676606 132.390832 C 255.897505 131.588421 254.695704 130.277696 254.067572 128.458656 C 253.43944 126.635984 252.952911 124.893191 252.604352 123.226646 L 251.823726 118.673599 L 228.65184 77.304049 C 228.285127 76.846565 227.925676 76.360036 227.580748 75.840829 C 227.23219 75.299837 226.876369 74.798784 226.509657 74.344931 C 226.593166 78.872562 226.61495 83.400193 226.571381 87.931455 C 226.531442 92.459087 226.509657 96.986718 226.509657 101.514349 C 226.680305 104.17937 226.78923 106.844391 226.8328 109.509412 C 226.898154 112.174433 226.974402 114.839454 227.061541 117.504475 C 227.148681 118.826093 227.23219 120.441807 227.319329 122.347987 C 227.406469 124.254167 227.203143 125.964283 226.70209 127.481965 C 226.226453 128.977863 225.057329 129.867413 223.194719 130.146986 C 222.392308 131.468604 221.295801 132.369047 219.908828 132.844685 C 218.547271 133.342107 217.105836 133.374784 215.588154 132.942717 C 214.179396 132.572373 212.944917 131.730023 211.884718 130.408405 C 211.514375 124.816944 211.223909 119.229114 211.00606 113.637653 C 210.788211 108.046192 210.592147 102.458362 210.421498 96.866901 C 210.225434 92.339269 210.083832 87.789853 209.996693 83.218653 C 209.909553 78.647452 209.782474 74.094405 209.608195 69.566774 C 209.521055 66.643964 209.455701 63.717524 209.412131 60.791084 C 209.368561 57.84649 209.433916 54.952728 209.608195 52.113427 C 210.497746 51.419941 211.340096 51.031443 212.142506 50.944304 C 212.142506 49.86232 212.501958 48.831167 213.217229 47.858108 C 214.277428 46.53649 215.468337 45.897465 216.789955 45.941035 C 218.133358 45.984605 219.509438 46.471135 220.918196 47.404255 C 222.348738 48.333745 223.637679 49.408467 224.785018 50.621161 C 225.932357 51.812069 226.821907 52.796021 227.450039 53.576647 C 229.748347 56.612012 231.850591 59.7091 233.756771 62.871544 C 235.684736 66.015833 237.525561 69.221846 239.279247 72.493214 C 240.796929 75.071095 242.260149 77.692546 243.668907 80.357567 C 245.099449 83.022588 246.486422 85.731179 247.826194 88.48334 C 248.000474 88.828268 248.087613 89.274858 248.087613 89.81585 L 250.20075 93.944091 C 249.852191 90.563799 249.365661 87.139937 248.73753 83.672505 C 248.131183 80.205073 247.513944 76.792103 246.885812 73.433596 C 246.43196 71.029994 245.985369 68.637284 245.553302 66.251836 C 245.121234 63.848234 244.543934 61.441001 243.832294 59.037399 C 243.46195 57.80292 243.127915 56.546657 242.822926 55.268609 C 242.517937 53.968776 242.714001 52.65805 243.407488 51.336432 C 244.035619 50.272602 244.794461 49.470191 245.684011 48.929199 C 245.684011 48.842059 245.705796 48.79849 245.749366 48.79849 C 245.792936 48.79849 245.814721 48.75492 245.814721 48.671411 C 246.613501 47.153729 247.837087 46.394888 249.485479 46.394888 C 251.13387 46.394888 252.528105 46.794278 253.679074 47.596689 C 253.936862 47.683828 254.252744 47.91257 254.619456 48.279283 C 254.880875 49.513761 255.182233 50.780917 255.530792 52.08075 C 255.897505 53.362429 256.256956 54.618692 256.601883 55.853171 C 257.665713 59.665531 258.551633 63.597707 259.266905 67.649701 C 259.982176 71.67991 260.642985 75.688334 261.249332 79.674973 C 262.592735 87.757176 263.667457 95.926519 264.466237 104.17937 C 265.268648 112.435852 265.929457 120.645133 266.452295 128.814476 C 265.737024 129.791166 264.847473 130.633516 263.787274 131.348787 C 262.723444 132.042274 261.576105 132.390832 260.341627 132.390832 Z M 267.784806 127.481965 C 267.610526 127.481965 267.436247 127.612675 267.261968 127.874094 C 266.376048 115.17712 265.148831 102.512824 263.59121 89.881205 C 262.029958 77.227801 259.873251 64.734154 257.124721 52.407524 C 256.950442 51.866532 257.092044 51.380002 257.545896 50.944304 C 257.890824 50.490451 258.370092 50.283495 258.976439 50.327064 C 259.604571 50.370634 259.960391 50.748239 260.047531 51.463511 C 262.454764 62.991361 264.339158 74.639028 265.704346 86.402881 C 267.091319 98.166734 267.741236 109.952372 267.654096 121.763426 C 267.741236 122.195493 267.80296 123.019689 267.84653 124.232382 C 267.890099 125.423291 267.868314 126.508906 267.784806 127.481965 Z M 209.477485 117.765894 C 209.132558 113.063984 208.860246 108.166009 208.664182 103.075601 C 208.493534 97.963408 208.319254 93.000079 208.144975 88.189244 C 207.970696 83.487333 207.843617 78.741853 207.756477 73.956434 C 207.669338 69.167383 207.582198 64.378333 207.495058 59.589283 C 207.386134 58.441945 207.418811 57.272821 207.59309 56.078281 C 207.789155 54.865588 208.101405 53.729142 208.537103 52.668943 C 208.449964 54.789341 208.428179 56.924262 208.471749 59.070076 C 208.515318 61.194105 208.577042 63.318134 208.664182 65.438533 C 208.773107 70.053303 208.892924 74.671705 209.023633 79.286476 C 209.154343 83.901246 209.259636 88.559587 209.346776 93.261497 L 210.552208 123.226646 C 210.552208 123.226646 210.432391 123.030581 210.192757 122.638453 C 209.974908 122.22817 209.738904 120.601564 209.477485 117.765894 Z M 224.39652 111.234051 L 223.971714 111.622548 C 223.971714 111.622548 223.949929 111.622548 223.90636 111.622548 C 223.866421 111.622548 223.801066 111.666118 223.713926 111.753258 L 223.583217 119.748321 C 223.583217 120.80852 223.779281 122.075676 224.167779 123.549788 C 224.578061 125.002116 224.567169 126.574261 224.135101 128.262591 C 225.024652 126.766694 225.36958 125.259904 225.177146 123.745853 C 225.090007 122.511374 225.024652 121.233326 224.981082 119.911708 C 224.937512 118.568305 224.828588 117.224902 224.654308 115.881499 C 224.654308 115.100873 224.632523 114.331139 224.588954 113.572298 C 224.545384 112.813457 224.48366 112.032831 224.39652 111.234051 Z M 345.513376 124.686235 C 344.275267 125.662925 343.084358 126.280164 341.937019 126.541583 C 342.111299 127.169715 342.035051 127.776062 341.708278 128.360623 C 341.40692 128.9234 340.855035 129.206604 340.052624 129.206604 C 329.501465 129.551532 318.917628 130.146986 308.301113 130.992967 C 297.702753 131.838948 287.129809 132.572373 276.578649 133.204136 C 276.386215 133.287645 276.266398 133.215028 276.222829 132.975394 C 276.179259 132.757545 276.244614 132.605051 276.415262 132.521542 C 279.450627 131.631991 282.493253 130.840473 285.550402 130.146986 C 288.603921 129.431715 291.693748 128.803583 294.812621 128.262591 C 286.817558 129.239282 279.007667 130.441083 271.379316 131.871625 C 270.123053 132.042274 268.921252 131.933349 267.770282 131.544852 C 266.622944 131.134569 265.693454 130.353943 264.978183 129.206604 C 264.542484 128.404193 264.306481 127.471073 264.262911 126.410874 C 264.219341 125.347044 264.455345 124.417554 264.978183 123.615143 C 265.344895 123.161291 265.682561 122.736485 265.983919 122.347987 C 266.288908 121.955859 266.579374 121.578254 266.862578 121.211541 C 266.234446 120.688703 265.737024 120.027894 265.36668 119.229114 C 264.934613 117.537152 265.334003 115.783467 266.568481 113.960796 C 267.824745 112.141756 268.899467 110.573242 269.785387 109.251624 C 271.996555 105.784192 274.294864 102.338545 276.676681 98.914682 C 279.080283 95.49082 281.531086 92.143205 284.021828 88.871837 C 285.626649 86.834948 287.31498 84.743596 289.090451 82.601413 C 291.733687 79.155766 294.474955 75.764581 297.314255 72.427859 C 300.175341 69.091136 303.109042 65.830661 306.122622 62.646433 L 290.81509 66.251836 C 289.384547 66.600395 287.932219 66.93443 286.458107 67.261204 C 285.00941 67.562562 283.524405 67.889335 282.006723 68.234263 C 281.138957 68.408542 280.3075 68.593714 279.505089 68.786148 C 278.702678 68.960427 277.856697 68.905965 276.970777 68.626391 C 276.342646 68.452112 275.852485 67.922013 275.507557 67.032462 C 273.274604 66.317191 271.865846 64.853971 271.281284 62.646433 C 270.718507 60.435264 270.925464 58.441945 271.898523 56.666474 C 271.898523 54.800233 272.257974 53.111902 272.973246 51.59422 C 273.318174 50.878949 273.935413 50.370634 274.824963 50.069276 C 275.714514 49.764287 276.556864 49.698933 277.359275 49.873212 C 277.729618 49.960352 278.150793 49.982137 278.626431 49.938567 C 279.123853 49.894997 279.548659 49.829642 279.893587 49.742503 C 280.521718 49.28865 281.138957 49.059909 281.745304 49.059909 C 289.199375 48.540702 296.631661 47.879892 304.042163 47.077482 C 311.452664 46.275071 318.797811 44.89899 326.077602 42.94924 C 327.678794 42.495388 329.098444 42.669667 330.332922 43.468448 C 330.616126 43.384939 330.844868 43.384939 331.015516 43.468448 C 331.730787 43.555587 332.435166 43.718974 333.128653 43.958608 C 333.843924 44.172826 334.428486 44.58674 334.885969 45.193087 C 336.207587 45.193087 337.442066 45.334688 338.589404 45.614262 C 339.932807 45.96282 340.844143 46.914095 341.31978 48.475347 C 341.817202 50.014814 341.494059 51.28197 340.34309 52.276814 C 337.224216 54.92005 334.26873 57.80292 331.472999 60.921794 C 328.677269 64.022513 325.903323 67.076032 323.151162 70.085981 C 320.399002 73.121345 317.628687 76.185756 314.832956 79.286476 C 312.037226 82.383564 309.30685 85.491545 306.641829 88.614049 C 303.889668 91.711138 301.181078 94.862689 298.516056 98.068702 C 295.87282 101.256561 293.218692 104.440789 290.553671 107.625017 C 289.384547 109.05556 288.204531 110.486102 287.013622 111.916645 C 285.819083 113.321772 284.595497 114.741422 283.339234 116.171965 C 283.622437 116.171965 283.891118 116.15018 284.152537 116.10661 C 284.410325 116.041255 284.682637 115.965008 284.96584 115.881499 L 285.742836 114.970163 C 286.719526 113.7139 287.696216 112.468529 288.669276 111.234051 C 289.645966 109.995942 290.619025 108.794141 291.595716 107.625017 C 293.56725 105.2432 295.549677 102.879537 297.542997 100.541289 C 299.536317 98.177626 301.551421 95.839379 303.58831 93.519286 C 307.767383 88.817375 311.982764 84.257067 316.230822 79.83836 C 320.497034 75.394238 324.897586 71.040886 329.425217 66.771043 C 330.118704 66.142911 330.801298 66.164696 331.472999 66.836398 C 332.144701 67.508099 332.122916 68.147123 331.407645 68.75347 C 327.050662 73.110453 322.69731 77.507374 318.340327 81.951497 C 314.008761 86.391988 309.74981 90.919619 305.570738 95.53439 C 303.446708 97.745559 301.366249 100.007559 299.32936 102.327652 C 297.292471 104.625961 295.255581 106.9751 293.218692 109.378702 L 288.150069 115.358661 C 291.530361 114.817669 294.943331 114.418279 298.385347 114.15686 C 301.852779 113.899072 305.276641 113.637653 308.656934 113.376234 C 311.21303 113.183801 313.758234 112.998629 316.296176 112.82435 C 318.830488 112.65007 321.386584 112.522992 323.964466 112.435852 C 326.542347 112.261573 329.087551 112.109078 331.603709 111.978369 C 334.13802 111.829505 336.650547 111.85129 339.141289 112.043723 C 342.154868 112.043723 344.235328 113.365342 345.382666 116.008578 C 346.726069 117.094193 347.419556 118.50295 347.463126 120.234851 C 347.506695 121.944967 346.856779 123.429971 345.513376 124.686235 Z M 283.63333 63.03493 C 283.088707 64.639752 282.017616 65.841553 280.412794 66.643964 C 280.412794 66.643964 280.412794 66.665749 280.412794 66.709319 C 280.412794 66.749258 280.372855 66.771043 280.285715 66.771043 C 280.565288 66.771043 280.968309 66.687534 281.487516 66.513255 L 295.331828 62.123595 C 297.194438 61.582603 299.035264 61.030718 300.857935 60.467941 C 302.676975 59.88338 304.47423 59.320603 306.253331 58.77598 C 302.437341 59.491251 298.646766 60.206523 294.877976 60.921794 C 291.105555 61.637065 287.35855 62.341444 283.63333 63.03493 Z M 283.63333 63.03493 " stroke="#100a09" stroke-width="10.64976" stroke-opacity="1" stroke-miterlimit="4"/><g fill="#93ccc6" fill-opacity="1"><g transform="translate(23.915998, 199.567801)"><g><path d="M 65.015625 -48.6875 C 63.773438 -46.394531 62.03125 -44.703125 59.78125 -43.609375 C 57.539062 -42.515625 55.082031 -41.867188 52.40625 -41.671875 C 49.738281 -41.484375 47.046875 -41.53125 44.328125 -41.8125 C 41.609375 -42.101562 39.148438 -42.441406 36.953125 -42.828125 C 36.285156 -43.015625 35.640625 -43.15625 35.015625 -43.25 C 34.398438 -43.34375 33.753906 -43.4375 33.078125 -43.53125 C 33.273438 -42.675781 33.46875 -41.816406 33.65625 -40.953125 C 33.84375 -40.097656 33.988281 -39.289062 34.09375 -38.53125 C 34.757812 -35 35.398438 -31.460938 36.015625 -27.921875 C 36.640625 -24.390625 37.140625 -20.859375 37.515625 -17.328125 C 37.710938 -15.609375 37.757812 -13.863281 37.65625 -12.09375 C 37.5625 -10.332031 37.28125 -8.640625 36.8125 -7.015625 C 36.144531 -4.628906 34.710938 -2.429688 32.515625 -0.421875 C 31.742188 0.242188 30.710938 0.789062 29.421875 1.21875 C 28.140625 1.644531 27.066406 1.332031 26.203125 0.28125 C 25.441406 -0.757812 24.988281 -1.925781 24.84375 -3.21875 C 24.707031 -4.507812 24.539062 -5.773438 24.34375 -7.015625 C 24.25 -7.878906 24.128906 -8.765625 23.984375 -9.671875 C 23.847656 -10.578125 23.726562 -11.503906 23.625 -12.453125 C 22.957031 -14.742188 22.382812 -17.179688 21.90625 -19.765625 C 22.007812 -19.003906 22.109375 -18.265625 22.203125 -17.546875 C 22.296875 -16.828125 22.390625 -16.085938 22.484375 -15.328125 C 22.671875 -14.085938 22.835938 -12.84375 22.984375 -11.59375 C 23.128906 -10.351562 23.296875 -9.113281 23.484375 -7.875 C 23.578125 -6.914062 23.695312 -5.9375 23.84375 -4.9375 C 23.988281 -3.9375 23.914062 -3.003906 23.625 -2.140625 C 23.625 -2.046875 23.578125 -2.046875 23.484375 -2.140625 C 22.910156 -3.003906 22.578125 -4.03125 22.484375 -5.21875 C 22.390625 -6.414062 22.25 -7.492188 22.0625 -8.453125 L 20.765625 -15.890625 C 20.378906 -18.378906 19.992188 -20.835938 19.609375 -23.265625 C 19.234375 -25.703125 18.851562 -28.164062 18.46875 -30.65625 C 18 -33.613281 17.546875 -36.570312 17.109375 -39.53125 C 16.679688 -42.488281 16.226562 -45.445312 15.75 -48.40625 C 11.164062 -50.21875 6.773438 -52.222656 2.578125 -54.421875 C 2.484375 -54.515625 2.484375 -54.609375 2.578125 -54.703125 C 2.671875 -54.804688 2.765625 -54.804688 2.859375 -54.703125 C 4.960938 -53.753906 7.085938 -52.828125 9.234375 -51.921875 C 11.378906 -51.015625 13.503906 -50.175781 15.609375 -49.40625 C 15.515625 -49.882812 15.421875 -50.3125 15.328125 -50.6875 C 15.234375 -51.070312 15.132812 -51.457031 15.03125 -51.84375 C 13.414062 -52.507812 11.816406 -53.203125 10.234375 -53.921875 C 8.660156 -54.640625 7.0625 -55.332031 5.4375 -56 C 3.914062 -56.757812 2.960938 -58.046875 2.578125 -59.859375 C 2.191406 -61.679688 2.382812 -63.257812 3.15625 -64.59375 C 3.820312 -65.644531 4.867188 -66.503906 6.296875 -67.171875 C 7.734375 -67.835938 9.070312 -67.929688 10.3125 -67.453125 L 11.171875 -67.03125 C 10.304688 -70.175781 9.394531 -73.320312 8.4375 -76.46875 C 7.488281 -79.625 6.488281 -82.726562 5.4375 -85.78125 C 5.0625 -87.03125 5.207031 -88.15625 5.875 -89.15625 C 6.539062 -90.15625 7.398438 -90.847656 8.453125 -91.234375 C 8.359375 -91.898438 8.476562 -92.472656 8.8125 -92.953125 C 9.144531 -93.429688 9.5 -93.859375 9.875 -94.234375 C 12.269531 -95.859375 14.875 -96.40625 17.6875 -95.875 C 20.5 -95.351562 23.050781 -94.519531 25.34375 -93.375 C 27.738281 -92.132812 30.054688 -90.820312 32.296875 -89.4375 C 34.535156 -88.050781 36.753906 -86.644531 38.953125 -85.21875 C 43.441406 -82.257812 47.8125 -79.082031 52.0625 -75.6875 C 56.3125 -72.300781 60.488281 -68.796875 64.59375 -65.171875 C 65.738281 -64.210938 66.21875 -63.113281 66.03125 -61.875 C 66.882812 -60.4375 67.457031 -59.003906 67.75 -57.578125 C 68.03125 -55.566406 67.90625 -53.84375 67.375 -52.40625 C 66.851562 -50.976562 66.066406 -49.738281 65.015625 -48.6875 Z M 47.828125 -64.015625 C 45.734375 -65.253906 43.660156 -66.472656 41.609375 -67.671875 C 39.554688 -68.867188 37.476562 -70.039062 35.375 -71.1875 C 33.84375 -71.945312 32.265625 -72.734375 30.640625 -73.546875 C 29.023438 -74.359375 27.40625 -75.097656 25.78125 -75.765625 C 26.539062 -73.085938 27.253906 -70.363281 27.921875 -67.59375 C 28.597656 -64.832031 29.222656 -62.066406 29.796875 -59.296875 C 32.941406 -58.242188 35.992188 -57.382812 38.953125 -56.71875 C 41.335938 -56.238281 43.75 -55.878906 46.1875 -55.640625 C 48.625 -55.398438 51.035156 -55.375 53.421875 -55.5625 C 53.898438 -55.5625 54.398438 -55.585938 54.921875 -55.640625 C 55.453125 -55.691406 55.90625 -55.765625 56.28125 -55.859375 L 57.4375 -56.140625 C 57.238281 -56.523438 57.046875 -56.8125 56.859375 -57 C 55.898438 -58.53125 54.5625 -59.84375 52.84375 -60.9375 C 51.125 -62.039062 49.453125 -63.066406 47.828125 -64.015625 Z M 40.390625 -44.828125 C 39.148438 -45.015625 37.859375 -45.226562 36.515625 -45.46875 C 35.179688 -45.707031 33.847656 -45.972656 32.515625 -46.265625 C 32.609375 -46.066406 32.65625 -45.875 32.65625 -45.6875 C 32.65625 -45.5 32.703125 -45.304688 32.796875 -45.109375 C 33.085938 -45.015625 33.347656 -44.941406 33.578125 -44.890625 C 33.816406 -44.847656 34.082031 -44.828125 34.375 -44.828125 C 37.144531 -44.441406 39.984375 -44.082031 42.890625 -43.75 C 45.804688 -43.414062 48.648438 -43.394531 51.421875 -43.6875 L 56.859375 -44.546875 C 56.859375 -44.640625 56.351562 -44.632812 55.34375 -44.53125 C 54.34375 -44.4375 53.84375 -44.441406 53.84375 -44.546875 C 51.457031 -44.253906 49.070312 -44.15625 46.6875 -44.25 C 44.300781 -44.34375 42.203125 -44.535156 40.390625 -44.828125 Z M 33.234375 -19.625 C 33.421875 -17.238281 33.488281 -14.800781 33.4375 -12.3125 C 33.394531 -9.832031 32.800781 -7.492188 31.65625 -5.296875 L 31.9375 -4.875 C 32.507812 -5.15625 32.988281 -5.488281 33.375 -5.875 C 34.425781 -8.070312 34.878906 -10.363281 34.734375 -12.75 C 34.585938 -15.132812 34.273438 -17.519531 33.796875 -19.90625 L 32.9375 -24.34375 C 32.84375 -24.25 32.84375 -23.914062 32.9375 -23.34375 C 33.03125 -22.769531 33.03125 -22.484375 32.9375 -22.484375 Z M 33.234375 -19.625 "/></g></g></g><g fill="#93ccc6" fill-opacity="1"><g transform="translate(85.064759, 199.567801)"><g><path d="M 81.640625 -54.5625 L 81.203125 -51.5625 C 81.109375 -50.21875 80.488281 -49.046875 79.34375 -48.046875 C 78.195312 -47.046875 77.050781 -46.59375 75.90625 -46.6875 C 72.5625 -46.875 69.191406 -47.109375 65.796875 -47.390625 C 62.410156 -47.679688 59.050781 -47.972656 55.71875 -48.265625 C 59.625 -42.441406 63.0625 -36.519531 66.03125 -30.5 C 67.9375 -26.394531 69.84375 -22.125 71.75 -17.6875 C 73.65625 -13.25 74.320312 -8.691406 73.75 -4.015625 C 73.5625 -2.484375 72.800781 -1.5 71.46875 -1.0625 C 70.132812 -0.632812 68.84375 -0.660156 67.59375 -1.140625 C 66.925781 -1.046875 66.28125 -1.019531 65.65625 -1.0625 C 65.039062 -1.113281 64.398438 -1.285156 63.734375 -1.578125 C 63.546875 -1.578125 63.453125 -1.625 63.453125 -1.71875 C 62.878906 -1.144531 62.253906 -1 61.578125 -1.28125 C 60.335938 -4.625 59 -7.988281 57.5625 -11.375 C 56.132812 -14.769531 54.707031 -18.09375 53.28125 -21.34375 C 52.800781 -22.582031 52.082031 -24.320312 51.125 -26.5625 C 50.175781 -28.8125 49.175781 -31.148438 48.125 -33.578125 C 47.070312 -36.015625 46.066406 -38.09375 45.109375 -39.8125 C 44.347656 -41.53125 43.585938 -43.007812 42.828125 -44.25 L 42.828125 -44.390625 C 41.960938 -45.640625 41.148438 -46.976562 40.390625 -48.40625 C 38.578125 -48.5 36.710938 -48.59375 34.796875 -48.6875 C 32.890625 -48.789062 30.984375 -48.890625 29.078125 -48.984375 C 29.453125 -45.734375 29.78125 -42.484375 30.0625 -39.234375 C 30.351562 -35.992188 30.550781 -32.703125 30.65625 -29.359375 C 30.84375 -25.828125 31.054688 -22.269531 31.296875 -18.6875 C 31.535156 -15.101562 31.554688 -11.546875 31.359375 -8.015625 C 31.460938 -7.640625 31.515625 -7.234375 31.515625 -6.796875 C 31.515625 -6.367188 31.515625 -5.960938 31.515625 -5.578125 C 30.554688 -3.765625 29.457031 -2.332031 28.21875 -1.28125 C 27.257812 -0.519531 26.160156 -0.140625 24.921875 -0.140625 C 23.679688 -0.140625 22.628906 -0.617188 21.765625 -1.578125 C 21.285156 -2.335938 21 -3.097656 20.90625 -3.859375 C 20.332031 -3.765625 19.757812 -3.929688 19.1875 -4.359375 C 18.613281 -4.796875 18.328125 -5.394531 18.328125 -6.15625 C 17.953125 -7.6875 17.785156 -9.285156 17.828125 -10.953125 C 17.878906 -12.628906 17.804688 -14.226562 17.609375 -15.75 L 16.328125 -25.203125 C 15.753906 -28.546875 15.179688 -31.910156 14.609375 -35.296875 C 14.035156 -38.691406 13.460938 -42.0625 12.890625 -45.40625 L 12.03125 -50.40625 C 11.9375 -50.40625 11.816406 -50.40625 11.671875 -50.40625 C 11.523438 -50.40625 11.359375 -50.40625 11.171875 -50.40625 C 11.171875 -50.976562 10.882812 -51.316406 10.3125 -51.421875 C 9.550781 -51.609375 8.765625 -51.84375 7.953125 -52.125 C 7.140625 -52.414062 6.347656 -52.703125 5.578125 -52.984375 L 8.875 -53.421875 C 7.445312 -53.992188 6.015625 -54.757812 4.578125 -55.71875 C 3.242188 -56.570312 2.503906 -57.785156 2.359375 -59.359375 C 2.210938 -60.941406 2.519531 -62.351562 3.28125 -63.59375 C 4.050781 -64.832031 5.15625 -65.453125 6.59375 -65.453125 C 7.0625 -65.546875 7.507812 -65.59375 7.9375 -65.59375 C 8.375 -65.59375 8.785156 -65.59375 9.171875 -65.59375 C 8.691406 -68.070312 8.1875 -70.550781 7.65625 -73.03125 C 7.132812 -75.519531 6.585938 -77.957031 6.015625 -80.34375 C 7.253906 -81.300781 8.253906 -82.351562 9.015625 -83.5 C 7.679688 -84.644531 6.703125 -86.125 6.078125 -87.9375 C 5.460938 -89.75 5.535156 -91.46875 6.296875 -93.09375 C 7.253906 -94.90625 8.6875 -96 10.59375 -96.375 C 12.507812 -96.757812 14.5625 -96.804688 16.75 -96.515625 C 18.945312 -96.234375 20.8125 -95.953125 22.34375 -95.671875 C 22.820312 -95.671875 23.25 -95.476562 23.625 -95.09375 C 24.101562 -94.90625 24.601562 -94.710938 25.125 -94.515625 C 25.65625 -94.328125 26.160156 -94.140625 26.640625 -93.953125 C 26.734375 -93.953125 26.800781 -93.925781 26.84375 -93.875 C 26.894531 -93.832031 26.96875 -93.8125 27.0625 -93.8125 C 34.988281 -91.320312 42.554688 -87.859375 49.765625 -83.421875 C 56.972656 -78.984375 64.0625 -74.378906 71.03125 -69.609375 C 71.988281 -68.835938 72.660156 -67.785156 73.046875 -66.453125 C 74.085938 -65.785156 75.085938 -65.066406 76.046875 -64.296875 C 77.003906 -63.535156 77.957031 -62.773438 78.90625 -62.015625 C 81.195312 -60.296875 82.109375 -57.8125 81.640625 -54.5625 Z M 23.484375 -76.484375 C 23.578125 -76.378906 23.625 -76.234375 23.625 -76.046875 C 23.625 -75.859375 23.675781 -75.664062 23.78125 -75.46875 C 24.15625 -75.851562 24.601562 -76.019531 25.125 -75.96875 C 25.65625 -75.925781 25.96875 -75.570312 26.0625 -74.90625 C 26.445312 -73.375 26.804688 -71.867188 27.140625 -70.390625 C 27.472656 -68.910156 27.785156 -67.40625 28.078125 -65.875 C 28.453125 -65.78125 28.832031 -65.734375 29.21875 -65.734375 C 29.601562 -65.734375 29.984375 -65.6875 30.359375 -65.59375 C 30.554688 -66.457031 30.988281 -67.175781 31.65625 -67.75 C 33.082031 -68.695312 34.535156 -68.976562 36.015625 -68.59375 C 37.492188 -68.21875 38.925781 -67.578125 40.3125 -66.671875 C 41.695312 -65.765625 42.914062 -64.832031 43.96875 -63.875 L 57.859375 -62.15625 C 52.316406 -65.976562 46.679688 -69.34375 40.953125 -72.25 C 35.234375 -75.164062 29.269531 -77.335938 23.0625 -78.765625 Z M 33.65625 -12.03125 C 33.375 -17.945312 33.0625 -23.890625 32.71875 -29.859375 C 32.382812 -35.828125 31.789062 -41.722656 30.9375 -47.546875 L 32.078125 -47.546875 C 32.847656 -43.441406 33.421875 -39.238281 33.796875 -34.9375 C 34.179688 -30.644531 34.566406 -26.351562 34.953125 -22.0625 C 35.140625 -19.476562 35.039062 -17.585938 34.65625 -16.390625 C 34.28125 -15.203125 33.945312 -13.75 33.65625 -12.03125 Z M 33.65625 -12.03125 "/></g></g></g><g fill="#93ccc6" fill-opacity="1"><g transform="translate(163.398346, 199.567801)"><g><path d="M 2 -82.640625 C 1.71875 -83.585938 1.8125 -84.539062 2.28125 -85.5 C 2.757812 -86.457031 3.238281 -87.269531 3.71875 -87.9375 C 4.675781 -89.363281 5.867188 -90.554688 7.296875 -91.515625 C 7.679688 -91.898438 7.96875 -92.140625 8.15625 -92.234375 C 10.070312 -93.566406 12.101562 -94.566406 14.25 -95.234375 C 16.394531 -95.910156 18.566406 -95.960938 20.765625 -95.390625 C 22.671875 -94.910156 24.335938 -94.117188 25.765625 -93.015625 C 27.203125 -91.921875 28.257812 -90.421875 28.9375 -88.515625 C 29.21875 -87.742188 29.164062 -87.023438 28.78125 -86.359375 C 28.40625 -85.691406 27.929688 -85.117188 27.359375 -84.640625 C 24.972656 -82.921875 22.441406 -81.773438 19.765625 -81.203125 C 18.898438 -80.242188 17.75 -79.550781 16.3125 -79.125 C 14.882812 -78.695312 13.503906 -78.484375 12.171875 -78.484375 C 11.023438 -78.484375 9.898438 -78.578125 8.796875 -78.765625 C 7.703125 -78.960938 6.628906 -79.25 5.578125 -79.625 C 4.910156 -79.820312 4.195312 -80.207031 3.4375 -80.78125 C 2.675781 -81.351562 2.195312 -81.972656 2 -82.640625 Z M 11.59375 -79.203125 C 13.695312 -79.203125 15.082031 -79.414062 15.75 -79.84375 C 16.414062 -80.269531 16.703125 -80.484375 16.609375 -80.484375 C 15.753906 -80.296875 14.800781 -80.15625 13.75 -80.0625 C 12.695312 -79.96875 11.359375 -80.0625 9.734375 -80.34375 C 7.640625 -80.820312 6.234375 -81.773438 5.515625 -83.203125 C 4.796875 -84.640625 4.769531 -86.171875 5.4375 -87.796875 C 4.769531 -87.023438 4.148438 -86.117188 3.578125 -85.078125 C 3.296875 -84.398438 3.15625 -83.800781 3.15625 -83.28125 C 3.15625 -82.757812 3.441406 -82.257812 4.015625 -81.78125 C 4.960938 -81.007812 5.867188 -80.484375 6.734375 -80.203125 C 8.160156 -79.722656 9.78125 -79.390625 11.59375 -79.203125 Z M 26.5 -7.59375 C 25.832031 -6.445312 24.828125 -5.632812 23.484375 -5.15625 C 23.578125 -4.675781 23.53125 -4.171875 23.34375 -3.640625 C 23.15625 -3.117188 22.726562 -2.71875 22.0625 -2.4375 C 20.34375 -1.570312 18.503906 -1.332031 16.546875 -1.71875 C 14.585938 -2.101562 12.9375 -2.960938 11.59375 -4.296875 L 11.3125 -4.71875 C 10.644531 -5.007812 9.929688 -5.441406 9.171875 -6.015625 C 7.640625 -7.441406 6.707031 -9.15625 6.375 -11.15625 C 6.039062 -13.164062 5.726562 -15.175781 5.4375 -17.1875 C 4.769531 -22.53125 4.269531 -27.851562 3.9375 -33.15625 C 3.601562 -38.457031 3.484375 -43.78125 3.578125 -49.125 C 3.578125 -51.695312 3.578125 -54.296875 3.578125 -56.921875 C 3.578125 -59.554688 3.722656 -62.160156 4.015625 -64.734375 C 4.203125 -66.066406 4.535156 -67.378906 5.015625 -68.671875 C 5.492188 -69.960938 6.160156 -71.035156 7.015625 -71.890625 C 7.203125 -72.179688 7.390625 -72.445312 7.578125 -72.6875 C 7.773438 -72.925781 7.96875 -73.140625 8.15625 -73.328125 C 9.207031 -73.992188 10.566406 -74.828125 12.234375 -75.828125 C 13.910156 -76.835938 15.5625 -77.410156 17.1875 -77.546875 C 18.8125 -77.691406 20.003906 -76.8125 20.765625 -74.90625 C 21.242188 -75 21.722656 -74.898438 22.203125 -74.609375 C 22.679688 -74.328125 22.96875 -73.851562 23.0625 -73.1875 C 23.0625 -70.507812 23.007812 -67.878906 22.90625 -65.296875 C 22.8125 -62.722656 22.765625 -60.101562 22.765625 -57.4375 C 22.765625 -54.851562 22.8125 -52.25 22.90625 -49.625 C 23.007812 -47 23.109375 -44.347656 23.203125 -41.671875 C 23.203125 -41.191406 23.222656 -40.640625 23.265625 -40.015625 C 23.316406 -39.398438 23.390625 -38.757812 23.484375 -38.09375 C 23.578125 -38.1875 23.695312 -37.800781 23.84375 -36.9375 C 23.988281 -36.082031 24.109375 -35.25 24.203125 -34.4375 C 24.296875 -33.632812 24.390625 -33.234375 24.484375 -33.234375 C 24.390625 -36.660156 24.316406 -40.472656 24.265625 -44.671875 C 24.222656 -48.878906 24.222656 -53.082031 24.265625 -57.28125 C 24.316406 -61.488281 24.441406 -65.265625 24.640625 -68.609375 C 24.640625 -68.796875 24.804688 -68.910156 25.140625 -68.953125 C 25.472656 -69.003906 25.640625 -68.984375 25.640625 -68.890625 C 25.347656 -58.671875 25.488281 -48.476562 26.0625 -38.3125 C 26.632812 -28.144531 27.59375 -17.953125 28.9375 -7.734375 C 29.03125 -7.066406 28.691406 -6.707031 27.921875 -6.65625 C 27.160156 -6.613281 26.6875 -6.925781 26.5 -7.59375 Z M 10.59375 -66.03125 C 9.539062 -62.78125 8.941406 -59.363281 8.796875 -55.78125 C 8.660156 -52.195312 8.5 -48.738281 8.3125 -45.40625 L 8.3125 -43.96875 C 8.3125 -43.875 8.3125 -43.828125 8.3125 -43.828125 C 8.3125 -43.828125 8.3125 -43.78125 8.3125 -43.6875 C 8.5 -41.96875 8.6875 -40.25 8.875 -38.53125 C 9.070312 -36.8125 9.265625 -35.09375 9.453125 -33.375 L 9.875 -33.375 C 9.875 -36.613281 9.847656 -39.832031 9.796875 -43.03125 C 9.753906 -46.226562 9.78125 -49.453125 9.875 -52.703125 C 9.875 -55.179688 9.992188 -57.6875 10.234375 -60.21875 C 10.472656 -62.75 10.976562 -65.160156 11.75 -67.453125 L 11.59375 -67.453125 C 10.925781 -66.972656 10.59375 -66.5 10.59375 -66.03125 Z M 10.59375 -66.03125 "/></g></g></g><g fill="#93ccc6" fill-opacity="1"><g transform="translate(187.170114, 199.567801)"><g><path d="M 62.15625 0.421875 C 61.300781 0.992188 60.347656 0.992188 59.296875 0.421875 C 57.378906 -0.429688 56.085938 -1.835938 55.421875 -3.796875 C 54.753906 -5.753906 54.226562 -7.640625 53.84375 -9.453125 L 52.984375 -14.328125 L 28.078125 -58.859375 C 27.691406 -59.335938 27.304688 -59.863281 26.921875 -60.4375 C 26.546875 -61.007812 26.164062 -61.535156 25.78125 -62.015625 C 25.875 -57.140625 25.894531 -52.265625 25.84375 -47.390625 C 25.800781 -42.523438 25.78125 -37.660156 25.78125 -32.796875 C 25.96875 -29.929688 26.082031 -27.066406 26.125 -24.203125 C 26.175781 -21.335938 26.253906 -18.472656 26.359375 -15.609375 C 26.453125 -14.179688 26.546875 -12.4375 26.640625 -10.375 C 26.734375 -8.320312 26.515625 -6.484375 25.984375 -4.859375 C 25.460938 -3.242188 24.203125 -2.289062 22.203125 -2 C 21.335938 -0.570312 20.164062 0.398438 18.6875 0.921875 C 17.207031 1.453125 15.65625 1.476562 14.03125 1 C 12.507812 0.613281 11.175781 -0.289062 10.03125 -1.71875 C 9.644531 -7.726562 9.332031 -13.738281 9.09375 -19.75 C 8.851562 -25.769531 8.640625 -31.789062 8.453125 -37.8125 C 8.253906 -42.675781 8.109375 -47.566406 8.015625 -52.484375 C 7.921875 -57.398438 7.78125 -62.296875 7.59375 -67.171875 C 7.5 -70.316406 7.425781 -73.460938 7.375 -76.609375 C 7.320312 -79.765625 7.394531 -82.875 7.59375 -85.9375 C 8.539062 -86.695312 9.445312 -87.125 10.3125 -87.21875 C 10.3125 -88.363281 10.691406 -89.460938 11.453125 -90.515625 C 12.597656 -91.941406 13.882812 -92.628906 15.3125 -92.578125 C 16.75 -92.535156 18.234375 -92.015625 19.765625 -91.015625 C 21.296875 -90.015625 22.679688 -88.867188 23.921875 -87.578125 C 25.160156 -86.285156 26.113281 -85.210938 26.78125 -84.359375 C 29.257812 -81.109375 31.523438 -77.785156 33.578125 -74.390625 C 35.628906 -71.003906 37.613281 -67.546875 39.53125 -64.015625 C 41.15625 -61.242188 42.726562 -58.425781 44.25 -55.5625 C 45.78125 -52.695312 47.257812 -49.785156 48.6875 -46.828125 C 48.882812 -46.453125 48.984375 -45.976562 48.984375 -45.40625 L 51.265625 -40.953125 C 50.890625 -44.585938 50.363281 -48.265625 49.6875 -51.984375 C 49.019531 -55.710938 48.351562 -59.390625 47.6875 -63.015625 C 47.207031 -65.597656 46.726562 -68.175781 46.25 -70.75 C 45.78125 -73.320312 45.160156 -75.898438 44.390625 -78.484375 C 44.015625 -79.816406 43.660156 -81.175781 43.328125 -82.5625 C 42.992188 -83.945312 43.207031 -85.359375 43.96875 -86.796875 C 44.632812 -87.941406 45.445312 -88.800781 46.40625 -89.375 C 46.40625 -89.46875 46.425781 -89.515625 46.46875 -89.515625 C 46.519531 -89.515625 46.546875 -89.5625 46.546875 -89.65625 C 47.398438 -91.28125 48.710938 -92.09375 50.484375 -92.09375 C 52.253906 -92.09375 53.757812 -91.660156 55 -90.796875 C 55.28125 -90.703125 55.613281 -90.460938 56 -90.078125 C 56.28125 -88.742188 56.613281 -87.382812 57 -86 C 57.382812 -84.613281 57.765625 -83.253906 58.140625 -81.921875 C 59.285156 -77.816406 60.238281 -73.59375 61 -69.25 C 61.769531 -64.90625 62.488281 -60.582031 63.15625 -56.28125 C 64.59375 -47.59375 65.738281 -38.804688 66.59375 -29.921875 C 67.457031 -21.046875 68.175781 -12.21875 68.75 -3.4375 C 67.976562 -2.382812 67.019531 -1.476562 65.875 -0.71875 C 64.726562 0.0390625 63.488281 0.421875 62.15625 0.421875 Z M 70.171875 -4.875 C 69.984375 -4.875 69.796875 -4.726562 69.609375 -4.4375 C 68.648438 -18.09375 67.332031 -31.722656 65.65625 -45.328125 C 63.988281 -58.929688 61.675781 -72.367188 58.71875 -85.640625 C 58.53125 -86.210938 58.675781 -86.738281 59.15625 -87.21875 C 59.53125 -87.695312 60.050781 -87.910156 60.71875 -87.859375 C 61.394531 -87.816406 61.78125 -87.410156 61.875 -86.640625 C 64.445312 -74.234375 66.472656 -61.703125 67.953125 -49.046875 C 69.429688 -36.398438 70.125 -23.726562 70.03125 -11.03125 C 70.125 -10.550781 70.195312 -9.664062 70.25 -8.375 C 70.300781 -7.082031 70.273438 -5.914062 70.171875 -4.875 Z M 7.453125 -15.328125 C 7.066406 -20.390625 6.773438 -25.664062 6.578125 -31.15625 C 6.390625 -36.644531 6.203125 -41.96875 6.015625 -47.125 C 5.828125 -52.175781 5.679688 -57.28125 5.578125 -62.4375 C 5.484375 -67.59375 5.390625 -72.75 5.296875 -77.90625 C 5.203125 -79.144531 5.25 -80.410156 5.4375 -81.703125 C 5.632812 -82.992188 5.96875 -84.210938 6.4375 -85.359375 C 6.34375 -83.066406 6.316406 -80.773438 6.359375 -78.484375 C 6.410156 -76.191406 6.488281 -73.898438 6.59375 -71.609375 C 6.6875 -66.640625 6.800781 -61.671875 6.9375 -56.703125 C 7.082031 -51.742188 7.203125 -46.734375 7.296875 -41.671875 L 8.59375 -9.453125 C 8.59375 -9.453125 8.472656 -9.664062 8.234375 -10.09375 C 7.992188 -10.519531 7.734375 -12.265625 7.453125 -15.328125 Z M 23.484375 -22.34375 L 23.0625 -21.90625 C 23.0625 -21.90625 23.035156 -21.90625 22.984375 -21.90625 C 22.941406 -21.90625 22.867188 -21.859375 22.765625 -21.765625 L 22.625 -13.171875 C 22.625 -12.023438 22.835938 -10.664062 23.265625 -9.09375 C 23.703125 -7.519531 23.679688 -5.828125 23.203125 -4.015625 C 24.160156 -5.628906 24.539062 -7.25 24.34375 -8.875 C 24.25 -10.21875 24.175781 -11.601562 24.125 -13.03125 C 24.082031 -14.46875 23.96875 -15.898438 23.78125 -17.328125 C 23.78125 -18.191406 23.753906 -19.023438 23.703125 -19.828125 C 23.648438 -20.640625 23.578125 -21.476562 23.484375 -22.34375 Z M 23.484375 -22.34375 "/></g></g></g><g fill="#93ccc6" fill-opacity="1"><g transform="translate(254.047153, 199.567801)"><g><path d="M 86.9375 -7.875 C 85.59375 -6.820312 84.300781 -6.15625 83.0625 -5.875 C 83.257812 -5.207031 83.1875 -4.5625 82.84375 -3.9375 C 82.507812 -3.3125 81.914062 -3 81.0625 -3 C 69.695312 -2.625 58.3125 -1.984375 46.90625 -1.078125 C 35.5 -0.171875 24.113281 0.613281 12.75 1.28125 C 12.550781 1.382812 12.425781 1.316406 12.375 1.078125 C 12.332031 0.835938 12.410156 0.671875 12.609375 0.578125 C 15.847656 -0.378906 19.113281 -1.238281 22.40625 -2 C 25.707031 -2.769531 29.03125 -3.441406 32.375 -4.015625 C 23.78125 -2.960938 15.375 -1.671875 7.15625 -0.140625 C 5.820312 0.046875 4.535156 -0.0703125 3.296875 -0.5 C 2.054688 -0.925781 1.050781 -1.757812 0.28125 -3 C -0.1875 -3.863281 -0.445312 -4.867188 -0.5 -6.015625 C -0.550781 -7.160156 -0.289062 -8.160156 0.28125 -9.015625 C 0.664062 -9.492188 1.023438 -9.945312 1.359375 -10.375 C 1.691406 -10.8125 2.003906 -11.21875 2.296875 -11.59375 C 1.617188 -12.164062 1.09375 -12.882812 0.71875 -13.75 C 0.238281 -15.5625 0.664062 -17.445312 2 -19.40625 C 3.34375 -21.363281 4.488281 -23.054688 5.4375 -24.484375 C 7.820312 -28.210938 10.300781 -31.914062 12.875 -35.59375 C 15.457031 -39.269531 18.085938 -42.875 20.765625 -46.40625 C 22.484375 -48.601562 24.296875 -50.847656 26.203125 -53.140625 C 29.066406 -56.859375 32.023438 -60.507812 35.078125 -64.09375 C 38.140625 -67.675781 41.296875 -71.179688 44.546875 -74.609375 L 28.078125 -70.75 C 26.546875 -70.363281 24.988281 -70.003906 23.40625 -69.671875 C 21.832031 -69.335938 20.238281 -68.984375 18.625 -68.609375 C 17.664062 -68.410156 16.753906 -68.21875 15.890625 -68.03125 C 15.035156 -67.84375 14.128906 -67.890625 13.171875 -68.171875 C 12.503906 -68.359375 11.976562 -68.929688 11.59375 -69.890625 C 9.207031 -70.648438 7.703125 -72.222656 7.078125 -74.609375 C 6.460938 -77.003906 6.679688 -79.15625 7.734375 -81.0625 C 7.734375 -83.0625 8.113281 -84.875 8.875 -86.5 C 9.257812 -87.269531 9.925781 -87.820312 10.875 -88.15625 C 11.832031 -88.488281 12.742188 -88.554688 13.609375 -88.359375 C 13.984375 -88.265625 14.429688 -88.238281 14.953125 -88.28125 C 15.484375 -88.332031 15.941406 -88.410156 16.328125 -88.515625 C 16.992188 -88.984375 17.660156 -89.21875 18.328125 -89.21875 C 26.347656 -89.789062 34.34375 -90.503906 42.3125 -91.359375 C 50.289062 -92.222656 58.195312 -93.707031 66.03125 -95.8125 C 67.75 -96.289062 69.273438 -96.097656 70.609375 -95.234375 C 70.890625 -95.335938 71.128906 -95.335938 71.328125 -95.234375 C 72.085938 -95.140625 72.847656 -94.972656 73.609375 -94.734375 C 74.378906 -94.492188 75 -94.039062 75.46875 -93.375 C 76.90625 -93.375 78.242188 -93.234375 79.484375 -92.953125 C 80.921875 -92.566406 81.898438 -91.535156 82.421875 -89.859375 C 82.941406 -88.191406 82.582031 -86.832031 81.34375 -85.78125 C 78 -82.914062 74.820312 -79.8125 71.8125 -76.46875 C 68.8125 -73.132812 65.832031 -69.84375 62.875 -66.59375 C 59.914062 -63.351562 56.929688 -60.0625 53.921875 -56.71875 C 50.910156 -53.375 47.972656 -50.03125 45.109375 -46.6875 C 42.148438 -43.34375 39.238281 -39.953125 36.375 -36.515625 C 33.507812 -33.078125 30.644531 -29.640625 27.78125 -26.203125 C 26.539062 -24.679688 25.273438 -23.15625 23.984375 -21.625 C 22.703125 -20.09375 21.390625 -18.566406 20.046875 -17.046875 C 20.335938 -17.046875 20.625 -17.066406 20.90625 -17.109375 C 21.195312 -17.160156 21.484375 -17.234375 21.765625 -17.328125 L 22.625 -18.328125 C 23.675781 -19.671875 24.726562 -21.007812 25.78125 -22.34375 C 26.832031 -23.675781 27.882812 -24.960938 28.9375 -26.203125 C 31.03125 -28.785156 33.148438 -31.34375 35.296875 -33.875 C 37.453125 -36.40625 39.625 -38.910156 41.8125 -41.390625 C 46.300781 -46.453125 50.835938 -51.367188 55.421875 -56.140625 C 60.003906 -60.910156 64.734375 -65.585938 69.609375 -70.171875 C 70.367188 -70.847656 71.101562 -70.828125 71.8125 -70.109375 C 72.53125 -69.390625 72.507812 -68.695312 71.75 -68.03125 C 67.070312 -63.351562 62.394531 -58.625 57.71875 -53.84375 C 53.039062 -49.070312 48.457031 -44.203125 43.96875 -39.234375 C 41.675781 -36.847656 39.429688 -34.414062 37.234375 -31.9375 C 35.035156 -29.457031 32.84375 -26.925781 30.65625 -24.34375 L 25.203125 -17.90625 C 28.835938 -18.476562 32.515625 -18.90625 36.234375 -19.1875 C 39.953125 -19.476562 43.628906 -19.765625 47.265625 -20.046875 C 50.035156 -20.242188 52.78125 -20.4375 55.5 -20.625 C 58.21875 -20.8125 60.960938 -20.953125 63.734375 -21.046875 C 66.503906 -21.242188 69.25 -21.410156 71.96875 -21.546875 C 74.6875 -21.691406 77.382812 -21.671875 80.0625 -21.484375 C 83.300781 -21.484375 85.546875 -20.050781 86.796875 -17.1875 C 88.222656 -16.039062 88.957031 -14.535156 89 -12.671875 C 89.050781 -10.804688 88.363281 -9.207031 86.9375 -7.875 Z M 20.34375 -74.1875 C 19.769531 -72.46875 18.625 -71.179688 16.90625 -70.328125 C 16.90625 -70.328125 16.90625 -70.300781 16.90625 -70.25 C 16.90625 -70.195312 16.851562 -70.171875 16.75 -70.171875 C 17.039062 -70.171875 17.472656 -70.269531 18.046875 -70.46875 L 32.9375 -75.1875 C 34.945312 -75.757812 36.925781 -76.351562 38.875 -76.96875 C 40.832031 -77.59375 42.769531 -78.191406 44.6875 -78.765625 C 40.582031 -78.003906 36.5 -77.238281 32.4375 -76.46875 C 28.382812 -75.707031 24.351562 -74.945312 20.34375 -74.1875 Z M 20.34375 -74.1875 "/></g></g></g><g fill="#000000" fill-opacity="1"><g transform="translate(34.561199, 278.906377)"><g><path d="M 40.84375 1.421875 C 35.738281 1.421875 30.9375 0.488281 26.4375 -1.375 C 21.945312 -3.25 18.050781 -5.816406 14.75 -9.078125 C 11.445312 -12.347656 8.828125 -16.242188 6.890625 -20.765625 C 4.953125 -25.296875 3.984375 -30.21875 3.984375 -35.53125 L 3.984375 -35.734375 C 3.984375 -40.898438 4.9375 -45.765625 6.84375 -50.328125 C 8.75 -54.890625 11.351562 -58.820312 14.65625 -62.125 C 17.957031 -65.425781 21.921875 -68.046875 26.546875 -69.984375 C 31.171875 -71.921875 36.171875 -72.890625 41.546875 -72.890625 C 48.828125 -72.890625 54.914062 -71.492188 59.8125 -68.703125 C 64.71875 -65.910156 68.738281 -62.375 71.875 -58.09375 L 56.96875 -46.5625 C 54.925781 -49.070312 52.660156 -51.09375 50.171875 -52.625 C 47.691406 -54.15625 44.75 -54.921875 41.34375 -54.921875 C 38.832031 -54.921875 36.535156 -54.410156 34.453125 -53.390625 C 32.378906 -52.367188 30.59375 -51.007812 29.09375 -49.3125 C 27.59375 -47.613281 26.414062 -45.601562 25.5625 -43.28125 C 24.71875 -40.96875 24.296875 -38.519531 24.296875 -35.9375 L 24.296875 -35.734375 C 24.296875 -33.078125 24.71875 -30.570312 25.5625 -28.21875 C 26.414062 -25.875 27.59375 -23.851562 29.09375 -22.15625 C 30.59375 -20.457031 32.378906 -19.113281 34.453125 -18.125 C 36.535156 -17.132812 38.832031 -16.640625 41.34375 -16.640625 C 45.019531 -16.640625 48.097656 -17.4375 50.578125 -19.03125 C 53.066406 -20.632812 55.367188 -22.726562 57.484375 -25.3125 L 72.390625 -14.703125 C 69.046875 -10.078125 64.90625 -6.234375 59.96875 -3.171875 C 55.039062 -0.109375 48.664062 1.421875 40.84375 1.421875 Z M 40.84375 1.421875 "/></g></g></g><g fill="#000000" fill-opacity="1"><g transform="translate(109.188197, 278.906377)"><g><path d="M 42.375 1.421875 C 36.851562 1.421875 31.742188 0.453125 27.046875 -1.484375 C 22.359375 -3.421875 18.3125 -6.039062 14.90625 -9.34375 C 11.5 -12.644531 8.828125 -16.554688 6.890625 -21.078125 C 4.953125 -25.609375 3.984375 -30.425781 3.984375 -35.53125 L 3.984375 -35.734375 C 3.984375 -40.835938 4.96875 -45.648438 6.9375 -50.171875 C 8.914062 -54.703125 11.601562 -58.648438 15 -62.015625 C 18.40625 -65.390625 22.472656 -68.046875 27.203125 -69.984375 C 31.929688 -71.921875 37.054688 -72.890625 42.578125 -72.890625 C 48.085938 -72.890625 53.191406 -71.921875 57.890625 -69.984375 C 62.585938 -68.046875 66.632812 -65.425781 70.03125 -62.125 C 73.4375 -58.820312 76.109375 -54.90625 78.046875 -50.375 C 79.984375 -45.851562 80.953125 -41.039062 80.953125 -35.9375 L 80.953125 -35.734375 C 80.953125 -30.628906 79.960938 -25.8125 77.984375 -21.28125 C 76.015625 -16.757812 73.328125 -12.8125 69.921875 -9.4375 C 66.523438 -6.070312 62.460938 -3.421875 57.734375 -1.484375 C 53.003906 0.453125 47.882812 1.421875 42.375 1.421875 Z M 42.578125 -16.4375 C 45.296875 -16.4375 47.757812 -16.945312 49.96875 -17.96875 C 52.1875 -18.988281 54.078125 -20.363281 55.640625 -22.09375 C 57.203125 -23.832031 58.425781 -25.859375 59.3125 -28.171875 C 60.195312 -30.492188 60.640625 -32.945312 60.640625 -35.53125 L 60.640625 -35.734375 C 60.640625 -38.316406 60.195312 -40.78125 59.3125 -43.125 C 58.425781 -45.476562 57.179688 -47.519531 55.578125 -49.25 C 53.984375 -50.988281 52.0625 -52.382812 49.8125 -53.4375 C 47.570312 -54.5 45.09375 -55.03125 42.375 -55.03125 C 39.644531 -55.03125 37.15625 -54.519531 34.90625 -53.5 C 32.664062 -52.476562 30.757812 -51.097656 29.1875 -49.359375 C 27.625 -47.628906 26.398438 -45.601562 25.515625 -43.28125 C 24.640625 -40.96875 24.203125 -38.519531 24.203125 -35.9375 L 24.203125 -35.734375 C 24.203125 -33.148438 24.640625 -30.679688 25.515625 -28.328125 C 26.398438 -25.984375 27.644531 -23.941406 29.25 -22.203125 C 30.851562 -20.472656 32.789062 -19.078125 35.0625 -18.015625 C 37.34375 -16.960938 39.847656 -16.4375 42.578125 -16.4375 Z M 42.578125 -16.4375 "/></g></g></g><g fill="#000000" fill-opacity="1"><g transform="translate(194.024087, 278.906377)"><g><path d="M 6.328125 0 L 6.328125 -71.46875 L 34 -71.46875 C 40.320312 -71.46875 45.984375 -70.582031 50.984375 -68.8125 C 55.992188 -67.039062 60.21875 -64.601562 63.65625 -61.5 C 67.09375 -58.40625 69.710938 -54.679688 71.515625 -50.328125 C 73.316406 -45.972656 74.21875 -41.242188 74.21875 -36.140625 L 74.21875 -35.9375 C 74.21875 -30.832031 73.296875 -26.066406 71.453125 -21.640625 C 69.617188 -17.210938 66.96875 -13.398438 63.5 -10.203125 C 60.03125 -7.003906 55.773438 -4.503906 50.734375 -2.703125 C 45.703125 -0.898438 39.988281 0 33.59375 0 Z M 34.203125 -54 L 26.140625 -54 L 26.140625 -17.5625 L 34.203125 -17.5625 C 40.117188 -17.5625 44.894531 -19.144531 48.53125 -22.3125 C 52.175781 -25.476562 54 -29.914062 54 -35.625 L 54 -35.828125 C 54 -41.546875 52.175781 -46.003906 48.53125 -49.203125 C 44.894531 -52.398438 40.117188 -54 34.203125 -54 Z M 34.203125 -54 "/></g></g></g><g fill="#000000" fill-opacity="1"><g transform="translate(272.22421, 278.906377)"><g><path d="M 6.328125 0 L 6.328125 -71.46875 L 63.8125 -71.46875 L 63.8125 -54.71875 L 25.9375 -54.71875 L 25.9375 -43.796875 L 60.234375 -43.796875 L 60.234375 -28.171875 L 25.9375 -28.171875 L 25.9375 -16.84375 L 64.3125 -16.84375 L 64.3125 0 Z M 6.328125 0 "/></g></g></g></svg>